# Blender 4.3.0
# www.blender.org
mtllib Gem.mtl
o Cube
v 0.000000 -0.536157 0.000000
v -0.669274 0.878819 0.669274
v -0.669274 0.878819 -0.669274
v 0.669274 0.878819 0.669274
v 0.669274 0.878819 -0.669274
v 0.000000 0.878819 -0.806361
v 0.000000 0.878819 0.806361
v -0.806361 0.878819 0.000000
v 0.806361 0.878819 0.000000
v -0.907335 0.396227 0.907335
v -0.907335 0.396227 -0.907335
v 0.907335 0.396227 -0.907335
v 0.907335 0.396227 0.907335
v 0.000000 0.396227 1.131047
v 0.000000 0.396227 -1.131047
v 1.131047 0.396227 0.000000
v -1.131047 0.396227 0.000000
vn -0.8272 0.5290 -0.1893
vn 0.1893 0.5290 -0.8272
vn 0.8272 0.5290 0.1893
vn -0.1893 0.5290 0.8272
vn 0.1893 0.5290 0.8272
vn -0.1893 0.5290 -0.8272
vn -0.0000 1.0000 -0.0000
vn 0.8272 0.5290 -0.1893
vn -0.8272 0.5290 0.1893
vn -0.6284 -0.7623 0.1549
vn 0.6284 -0.7623 -0.1549
vn -0.1549 -0.7623 -0.6284
vn 0.1549 -0.7623 0.6284
vn -0.1549 -0.7623 0.6284
vn 0.6284 -0.7623 0.1549
vn 0.1549 -0.7623 -0.6284
vn -0.6284 -0.7623 -0.1549
vt 0.500000 0.125000
vt 0.625000 0.125000
vt 0.625000 0.250000
vt 0.500000 0.250000
vt 0.500000 0.375000
vt 0.625000 0.375000
vt 0.625000 0.500000
vt 0.500000 0.500000
vt 0.500000 0.625000
vt 0.625000 0.625000
vt 0.625000 0.750000
vt 0.500000 0.750000
vt 0.500000 0.875000
vt 0.625000 0.875000
vt 0.625000 1.000000
vt 0.500000 1.000000
vt 0.625000 0.000000
vt 0.500000 0.000000
vt 0.375000 0.000000
vt 0.375000 0.500000
vt 0.375000 0.250000
vt 0.375000 0.750000
vt 0.375000 0.875000
vt 0.375000 0.625000
vt 0.375000 0.375000
vt 0.375000 0.125000
s 0
f 17/1/1 8/2/1 3/3/1 11/4/1
f 15/5/2 6/6/2 5/7/2 12/8/2
f 16/9/3 9/10/3 4/11/3 13/12/3
f 14/13/4 7/14/4 2/15/4 10/16/4
f 13/12/5 4/11/5 7/14/5 14/13/5
f 11/4/6 3/3/6 6/6/6 15/5/6
f 8/2/7 2/17/7 7/14/7 4/11/7 9/10/7 5/7/7 6/6/7 3/3/7
f 12/8/8 5/7/8 9/10/8 16/9/8
f 10/18/9 2/17/9 8/2/9 17/1/9
f 1/19/10 10/18/10 17/1/10
f 1/20/11 12/8/11 16/9/11
f 1/21/12 11/4/12 15/5/12
f 1/22/13 13/12/13 14/13/13
f 1/23/14 14/13/14 10/16/14
f 1/24/15 16/9/15 13/12/15
f 1/25/16 15/5/16 12/8/16
f 1/26/17 17/1/17 11/4/17
