# Blender 4.5.3 LTS
# www.blender.org
mtllib Checkpoint.mtl
o Cube
v 0.940150 2.120000 -0.836371
v 0.866435 -1.000000 -0.797595
v 1.182541 2.120000 0.430110
v 1.099717 -1.000000 0.421294
v -1.187196 2.091561 -0.429220
v -1.099717 -1.000000 -0.421295
v -0.944805 2.091561 0.837261
v -0.866435 -1.000000 0.797595
v 0.838105 1.556427 -0.278301
v 1.799311 2.561141 -0.407836
v 0.831666 1.547993 -0.204591
v 1.841924 2.581466 -0.327305
v 0.771319 1.557083 -0.161912
v 1.880164 2.662285 -0.300471
v 0.702506 1.576852 -0.182404
v 1.885237 2.742739 -0.347540
v 0.677046 1.592413 -0.250634
v 1.853322 2.762246 -0.433068
v 0.714110 1.592049 -0.315226
v 1.808452 2.706115 -0.492651
v 0.785788 1.576033 -0.327539
v 1.784415 2.616615 -0.481422
v 1.086908 2.664585 -0.118409
v 1.084058 2.656193 -0.046028
v 1.029702 2.666816 -0.005236
v 0.964350 2.687819 -0.026737
v 0.938889 2.703380 -0.094967
v 0.972493 2.701781 -0.158549
v 1.038179 2.684233 -0.168976
v 1.103760 2.712249 -0.113827
v 1.151863 2.748995 -0.123396
v 1.213236 2.751316 -0.145768
v 1.238314 2.777718 -0.091753
v 1.162350 2.768490 -0.053849
v 1.103868 2.714244 -0.040180
v 1.252868 2.846322 -0.067373
v 1.140938 2.835622 -0.013504
v 1.055781 2.746655 0.003242
v 1.248618 2.904108 -0.092296
v 1.105660 2.891094 -0.035447
v 0.994785 2.783794 -0.016205
v 1.228679 2.916295 -0.145732
v 1.081666 2.905759 -0.099748
v 0.969324 2.799355 -0.084436
v 1.208065 2.873705 -0.187441
v 1.087024 2.868574 -0.157987
v 0.998571 2.781622 -0.150072
v 1.202385 2.799678 -0.188040
v 1.119114 2.794915 -0.169716
v 1.057990 2.742285 -0.163129
v -1.194815 1.541728 0.228675
v 1.204078 1.570168 -0.230448
v 0.889831 2.109430 -0.791606
v 1.119248 2.109430 0.407090
v -1.123655 2.082512 -0.406247
v -0.894238 2.082512 0.792449
v -1.130866 1.562109 0.216435
v 1.139632 1.589026 -0.218113
vn -0.0129 0.9999 0.0025
vn 0.1880 -0.0078 0.9821
vn -0.9818 -0.0273 0.1879
vn -0.0000 -1.0000 -0.0000
vn 0.9819 -0.0255 -0.1879
vn -0.1879 -0.0078 -0.9822
vn -0.1682 -0.9728 -0.1591
vn -0.3521 -0.9324 -0.0813
vn 0.0510 -0.7057 0.7067
vn 0.2128 -0.7015 0.6802
vn 0.3566 0.0218 0.9340
vn 0.3892 0.0785 0.9178
vn 0.3959 0.7642 0.5091
vn 0.2804 0.8004 0.5299
vn 0.0936 0.9490 -0.3010
vn -0.0027 0.9734 -0.2289
vn -0.3088 0.4285 -0.8492
vn -0.2656 0.4787 -0.8369
vn -0.5045 -0.3662 -0.7820
vn -0.3633 -0.3494 -0.8637
vn 0.3214 0.0625 -0.9449
vn 0.3031 0.0296 -0.9525
vn 0.8991 -0.2108 -0.3836
vn 0.9140 -0.1527 -0.3759
vn -0.5350 0.2398 -0.8101
vn -0.5468 0.2507 -0.7989
vn -0.9705 0.2355 -0.0520
vn -0.9618 0.2710 -0.0389
vn -0.6774 0.0564 0.7335
vn -0.6739 0.0950 0.7327
vn 0.1318 -0.1678 0.9770
vn 0.1173 -0.1552 0.9809
vn 0.8471 -0.2588 0.4641
vn 0.8332 -0.2944 0.4681
vn 0.1624 -0.1089 -0.9807
vn 0.7537 -0.5213 -0.4002
vn -0.0762 -0.2590 -0.9629
vn 0.3133 -0.8938 -0.3208
vn -0.5431 0.3503 -0.7631
vn -0.3768 0.4960 -0.7823
vn -0.8475 0.5307 -0.0056
vn -0.4272 0.9003 -0.0837
vn -0.5701 0.3611 0.7380
vn -0.1463 0.7286 0.6692
vn 0.1120 -0.0501 0.9924
vn 0.2723 0.0993 0.9571
vn 0.7233 -0.4517 0.5223
vn 0.5078 -0.6160 0.6022
vn 0.8752 -0.2842 -0.3914
vn -0.9554 0.2320 0.1828
vn 0.9496 0.2555 -0.1817
vn 0.9554 -0.2320 -0.1828
vn -0.9496 -0.2555 0.1817
vn 0.3474 -0.7623 0.5460
vn 0.1213 -0.7623 -0.6357
vn -0.1028 -0.7662 0.6344
vn -0.3298 -0.7662 -0.5516
vt 0.323718 0.695772
vt 0.033599 0.695772
vt 0.033599 0.523069
vt 0.323718 0.523069
vt 0.395485 0.007775
vt 0.411644 0.425485
vt 0.121524 0.425485
vt 0.127395 0.011295
vt 0.887442 0.431138
vt 0.890687 0.842595
vt 0.717984 0.842595
vt 0.721229 0.431138
vt 0.042700 0.716482
vt 0.310814 0.716483
vt 0.310814 0.882696
vt 0.042700 0.882696
vt 0.914132 0.006225
vt 0.917377 0.421962
vt 0.744674 0.421962
vt 0.747919 0.006225
vt 0.708206 0.011295
vt 0.714077 0.425485
vt 0.423958 0.425485
vt 0.440116 0.007775
vt 0.674842 0.886025
vt 0.674842 0.993636
vt 0.627443 0.993636
vt 0.627443 0.886025
vt 0.580044 0.993636
vt 0.580044 0.886025
vt 0.532645 0.993636
vt 0.532645 0.886025
vt 0.485246 0.993636
vt 0.485246 0.886025
vt 0.437847 0.993636
vt 0.437847 0.886025
vt 0.390448 0.993636
vt 0.390448 0.886025
vt 0.343050 0.993636
vt 0.343050 0.886025
vt 0.390448 0.732213
vt 0.390448 0.849775
vt 0.343050 0.849775
vt 0.343050 0.732213
vt 0.437847 0.732213
vt 0.437847 0.849775
vt 0.485246 0.732213
vt 0.485246 0.849775
vt 0.532645 0.732213
vt 0.532645 0.849775
vt 0.580044 0.732213
vt 0.580044 0.849775
vt 0.627443 0.732213
vt 0.627443 0.849775
vt 0.674842 0.732213
vt 0.674842 0.849775
vt 0.390448 0.861858
vt 0.343050 0.861858
vt 0.390448 0.873942
vt 0.343050 0.873942
vt 0.437847 0.861858
vt 0.437847 0.873942
vt 0.485246 0.861858
vt 0.485246 0.873942
vt 0.532645 0.861858
vt 0.532645 0.873942
vt 0.580044 0.861858
vt 0.580044 0.873942
vt 0.627443 0.861858
vt 0.627443 0.873942
vt 0.674842 0.861858
vt 0.674842 0.873942
vt 0.434641 0.583168
vt 0.442357 0.569078
vt 0.436152 0.554261
vt 0.420699 0.549874
vt 0.407634 0.559220
vt 0.406795 0.575262
vt 0.418815 0.585920
vt 0.688144 0.471444
vt 0.612848 0.557795
vt 0.688144 0.644147
vt 0.517011 0.644147
vt 0.592673 0.557795
vt 0.517011 0.471443
s 0
usemtl mat_checkpoint
f 1/1/1 5/2/1 7/3/1 3/4/1
f 4/5/2 3/6/2 7/7/2 8/8/2
f 8/9/3 7/10/3 5/11/3 6/12/3
f 6/13/4 2/14/4 4/15/4 8/16/4
f 2/17/5 1/18/5 3/19/5 4/20/5
f 6/21/6 5/22/6 1/23/6 2/24/6
s 1
f 32/25/7 10/26/8 12/27/9 33/28/10
f 33/28/10 12/27/9 14/29/11 36/30/12
f 36/30/12 14/29/11 16/31/13 39/32/14
f 39/32/14 16/31/13 18/33/15 42/34/16
f 42/34/16 18/33/15 20/35/17 45/36/18
f 45/36/18 20/35/17 22/37/19 48/38/20
f 48/38/20 22/37/19 10/39/8 32/40/7
f 21/41/21 29/42/22 23/43/23 9/44/24
f 19/45/25 28/46/26 29/42/22 21/41/21
f 17/47/27 27/48/28 28/46/26 19/45/25
f 15/49/29 26/50/30 27/48/28 17/47/27
f 13/51/31 25/52/32 26/50/30 15/49/29
f 11/53/33 24/54/34 25/52/32 13/51/31
f 9/55/24 23/56/23 24/54/34 11/53/33
f 29/42/22 50/57/35 30/58/36 23/43/23
f 50/57/35 49/59/37 31/60/38 30/58/36
f 49/59/37 48/38/20 32/40/7 31/60/38
f 28/46/26 47/61/39 50/57/35 29/42/22
f 47/61/39 46/62/40 49/59/37 50/57/35
f 46/62/40 45/36/18 48/38/20 49/59/37
f 27/48/28 44/63/41 47/61/39 28/46/26
f 44/63/41 43/64/42 46/62/40 47/61/39
f 43/64/42 42/34/16 45/36/18 46/62/40
f 26/50/30 41/65/43 44/63/41 27/48/28
f 41/65/43 40/66/44 43/64/42 44/63/41
f 40/66/44 39/32/14 42/34/16 43/64/42
f 25/52/32 38/67/45 41/65/43 26/50/30
f 38/67/45 37/68/46 40/66/44 41/65/43
f 37/68/46 36/30/12 39/32/14 40/66/44
f 24/54/34 35/69/47 38/67/45 25/52/32
f 35/69/47 34/70/48 37/68/46 38/67/45
f 34/70/48 33/28/10 36/30/12 37/68/46
f 23/56/23 30/71/36 35/69/47 24/54/34
f 30/71/36 31/72/38 34/70/48 35/69/47
f 31/72/38 32/25/7 33/28/10 34/70/48
s 0
f 12/73/49 10/74/49 22/75/49 20/76/49 18/77/49 16/78/49 14/79/49
f 5/80/50 51/81/50 7/82/50
f 3/83/51 52/84/51 1/85/51
f 55/80/52 56/82/52 57/81/52
f 54/83/53 53/85/53 58/84/53
f 7/82/54 51/81/54 57/81/54 56/82/54
f 51/81/55 5/80/55 55/80/55 57/81/55
f 52/84/56 3/83/56 54/83/56 58/84/56
f 1/85/57 52/84/57 58/84/57 53/85/57
