# Blender 4.3.2
# www.blender.org
mtllib Checkpoint.mtl
o Cube
v 0.866435 -1.000000 -0.797595
v 1.099717 -1.000000 0.421294
v -1.099717 -1.000000 -0.421295
v -0.866435 -1.000000 0.797595
v 0.844472 -0.241227 -0.842941
v -0.892070 -0.365765 0.978666
v 1.220616 -0.235401 0.392910
v -1.081539 -0.308963 -0.422407
v 0.374897 -1.000000 -0.703520
v -0.116641 -1.000000 -0.609445
v -0.608179 -1.000000 -0.515370
v -0.374897 -1.000000 0.703520
v 0.116641 -1.000000 0.609445
v 0.608179 -1.000000 0.515370
v -0.749866 -0.121455 -0.565766
v -0.061557 -0.272479 -0.646700
v 0.300801 -0.103608 -0.758979
v 0.534565 -0.277460 0.615580
v 0.126222 -0.133363 0.777636
v -0.407796 -0.302969 0.754219
v -1.041397 -1.000000 -0.116572
v -0.983076 -1.000000 0.188150
v -0.924755 -1.000000 0.492872
v 1.041396 -1.000000 0.116572
v 0.983076 -1.000000 -0.188150
v 0.924755 -1.000000 -0.492872
v 1.082957 -0.080883 -0.346295
v 0.947871 -0.307263 -0.176840
v 1.049483 -0.135879 0.129887
v -1.101926 -0.208970 0.502185
v -0.973379 -0.339349 0.129350
v -1.262188 -0.210300 -0.135452
v -0.549859 -1.000000 -0.210647
v -0.491538 -1.000000 0.094075
v -0.433217 -1.000000 0.398797
v -0.058321 -1.000000 -0.304722
v -0.000000 -1.000000 -0.000000
v 0.058320 -1.000000 0.304722
v 0.433217 -1.000000 -0.398797
v 0.491538 -1.000000 -0.094075
v 0.549858 -1.000000 0.210647
v 0.880927 -0.386603 -0.805218
v 1.116000 -0.386603 0.423028
v -1.116916 -0.392194 -0.422853
v -0.881843 -0.392194 0.805393
v 0.616539 -0.388001 0.518619
v 0.117079 -0.389398 0.614210
v -0.382382 -0.390796 0.709802
v -0.617455 -0.390796 -0.518444
v -0.117994 -0.389398 -0.614035
v 0.381467 -0.388001 -0.709627
v -0.940611 -0.392194 0.498332
v -0.999379 -0.392194 0.191270
v -1.058148 -0.392194 -0.115791
v 0.939696 -0.386603 -0.498157
v 0.998464 -0.386603 -0.191095
v 1.057232 -0.386603 0.115966
v 0.812444 -0.693399 -0.745247
v 1.030212 -0.693399 0.392582
v -1.030671 -0.695999 -0.392495
v 0.569434 -0.694049 0.480770
v 0.108655 -0.694699 0.568959
v -0.352123 -0.695349 0.657147
v -0.569892 -0.695349 -0.480683
v -0.109113 -0.694699 -0.568871
v 0.351666 -0.694049 -0.657059
v -0.867344 -0.695999 0.460877
v -0.921786 -0.695999 0.176420
v -0.976228 -0.695999 -0.108038
v 0.866886 -0.693399 -0.460790
v 0.921328 -0.693399 -0.176332
v 0.975770 -0.693399 0.108125
v -0.812902 -0.695999 0.745335
v 0.549858 -0.930000 0.210647
v 0.593133 -0.930006 0.436717
v 0.999722 -0.933434 0.355784
v 0.957116 -0.930000 0.132702
v 0.394810 -0.374167 -0.642245
v 0.831449 -0.361554 -0.728884
v 0.799467 -0.217749 -0.766021
v 0.314314 -0.087739 -0.692139
v 0.988920 -0.381670 0.137516
v 1.032125 -0.354161 0.377258
v 1.133287 -0.198099 0.352419
v 0.982492 -0.134435 0.155456
v -0.994653 -0.360432 -0.126934
v -1.046634 -0.358706 -0.374574
v -1.027106 -0.271818 -0.369635
v -1.201693 -0.172843 -0.146366
v -0.397505 -0.348949 0.649077
v -0.844030 -0.333800 0.739498
v -0.868007 -0.293284 0.950713
v -0.421091 -0.252166 0.704405
v 0.602878 -0.362600 0.453441
v 0.519986 -0.248174 0.552573
v 0.105088 -0.363663 0.548561
v 0.116101 -0.096218 0.719142
v -0.603812 -0.377372 -0.451042
v -0.735758 -0.106650 -0.498772
v -0.105221 -0.375976 -0.546475
v -0.048886 -0.257089 -0.579590
v -0.840457 -0.930000 0.476739
v -0.797671 -0.933447 0.699737
v -0.389952 -0.930005 0.624820
v -0.433217 -0.930000 0.398797
v 0.101591 -0.930005 0.530769
v 0.058320 -0.930000 0.304722
v -0.101577 -0.930005 -0.530771
v -0.058321 -0.930000 -0.304722
v 0.433217 -0.930000 -0.398797
v 0.389957 -0.930005 -0.624870
v -0.000000 -0.930000 -0.000000
v 0.491538 -0.930000 -0.094075
v -0.593110 -0.930005 -0.436673
v -0.549859 -0.930000 -0.210647
v -0.491538 -0.930000 0.094075
v -0.999678 -0.933447 -0.355744
v -0.957098 -0.930000 -0.132706
v -0.898778 -0.930000 0.172016
v -0.878163 -0.357568 0.490226
v -1.045333 -0.166967 0.498036
v -0.936128 -0.362265 0.177402
v -0.912954 -0.304171 0.115434
v 0.871443 -0.371547 -0.487698
v 1.013880 -0.066737 -0.336083
v 0.927590 -0.381608 -0.179101
v 0.875736 -0.305062 -0.166953
v 0.840475 -0.930000 -0.476742
v 0.797697 -0.933434 -0.699791
v 0.898796 -0.930000 -0.172020
v 0.850796 -0.691663 -0.162833
v 0.905238 -0.691663 0.121624
v 0.796354 -0.691663 -0.447291
v 0.753508 -0.691232 -0.663357
v -0.851224 -0.694133 0.162915
v -0.905666 -0.694133 -0.121542
v -0.796782 -0.694133 0.447372
v -0.753929 -0.693694 0.663421
v -0.095829 -0.694158 -0.499421
v 0.364949 -0.693509 -0.587611
v -0.556607 -0.694807 -0.411230
v -0.945618 -0.693694 -0.338147
v 0.095356 -0.694158 0.499511
v -0.365424 -0.694807 0.587696
v 0.556135 -0.693509 0.411326
v 0.945203 -0.691232 0.338242
vn -0.0000 -1.0000 -0.0000
vn -0.1896 -0.1893 -0.9634
vn -0.2210 0.6167 -0.7555
vn 0.3836 0.3000 -0.8734
vn 0.5790 -0.2585 -0.7733
vn 0.9535 -0.1336 -0.2704
vn 0.5855 0.7515 -0.3039
vn 0.8987 0.3035 0.3166
vn 0.7756 -0.3238 0.5419
vn -0.9039 -0.3858 0.1846
vn -0.9114 0.3785 0.1616
vn -0.6644 0.1263 -0.7367
vn -0.7484 -0.3799 -0.5437
vn 0.1889 -0.4196 0.8878
vn 0.1824 -0.0909 0.9790
vn -0.2940 -0.1132 0.9491
vn -0.4947 -0.7205 0.4859
vn 0.3176 0.2016 0.9265
vn 0.2081 -0.2515 0.9452
vn 0.1744 0.3039 0.9366
vn 0.1689 -0.3476 0.9223
vn -0.2685 0.6031 -0.7511
vn -0.1897 -0.1832 -0.9646
vn -0.2319 0.4319 -0.8716
vn -0.1820 -0.1865 -0.9655
vn -0.9832 0.1767 0.0459
vn -0.8919 -0.4346 0.1250
vn -0.9215 0.2750 0.2744
vn -0.9145 -0.3769 0.1470
vn 0.7758 0.6135 0.1475
vn 0.9578 -0.2149 -0.1911
vn 0.8356 0.5404 0.0991
vn 0.9767 -0.1455 -0.1578
vn 0.9819 -0.0242 -0.1879
vn 0.5341 -0.0242 -0.8451
vn -0.9818 -0.0260 0.1879
vn -0.5337 -0.0254 0.8453
vn -0.1879 -0.0076 -0.9822
vn -0.1879 -0.0077 -0.9822
vn -0.8081 -0.0254 -0.5885
vn 0.1881 -0.0076 0.9821
vn 0.1881 -0.0077 0.9821
vn 0.8084 -0.0242 0.5881
vn -0.1864 0.1336 -0.9733
vn 0.5610 0.2344 -0.7939
vn 0.9622 0.2009 -0.1841
vn 0.8145 0.2344 0.5307
vn -0.9621 0.2011 0.1841
vn -0.8143 0.2351 -0.5307
vn 0.1862 0.1342 0.9733
vn -0.5608 0.2351 0.7939
vn 0.1862 0.1336 0.9734
vn 0.1862 0.1339 0.9733
vn -0.1864 0.1342 -0.9733
vn -0.1864 0.1339 -0.9733
vn 0.0055 1.0000 0.0066
vn 0.1906 0.1883 0.9634
vn -0.5726 0.2619 0.7769
vn -0.0907 0.9695 0.2276
vn 0.0265 0.8826 0.4694
vn -0.9566 0.1249 0.2633
vn -0.7777 0.3241 -0.5387
vn -0.1518 0.9549 0.2552
vn -0.6018 0.7890 0.1242
vn 0.9012 0.3926 -0.1838
vn 0.7228 0.3867 0.5727
vn 0.0697 0.9666 0.2467
vn 0.0315 0.9995 0.0056
vn -0.1879 0.4265 -0.8848
vn 0.4753 0.7400 -0.4759
vn -0.0815 0.8587 0.5060
vn -0.1230 0.9914 -0.0455
vn -0.2063 0.2572 -0.9441
vn 0.0479 0.9373 -0.3453
vn -0.1688 0.3492 -0.9217
vn -0.0081 0.9937 -0.1116
vn 0.1873 0.1834 0.9650
vn -0.0176 0.8895 0.4566
vn 0.1820 0.1865 0.9655
vn 0.0573 0.7667 0.6395
vn -0.0027 1.0000 0.0082
vn -0.0000 1.0000 -0.0000
vn -0.0055 1.0000 -0.0066
vn 0.8923 0.4342 -0.1233
vn -0.0674 0.9971 -0.0359
vn 0.9141 0.3770 -0.1492
vn 0.4101 0.9003 -0.1462
vn -0.9574 0.2182 0.1891
vn -0.3395 0.8745 0.3465
vn -0.9770 0.1411 0.1599
vn -0.8650 0.4657 0.1867
vn 0.0027 1.0000 -0.0082
vn -0.9819 0.0232 0.1881
vn -0.9831 0.0210 0.1817
vn -0.9819 0.0243 0.1880
vn -0.5283 0.0305 0.8485
vn 0.9819 0.0259 -0.1876
vn 0.9818 0.0267 -0.1879
vn 0.9821 0.0283 -0.1862
vn 0.5283 0.0372 -0.8482
vn 0.1879 0.0077 0.9822
vn 0.1880 0.0097 0.9821
vn 0.1868 0.0109 0.9823
vn 0.8041 0.0345 0.5934
vn -0.1885 0.0086 -0.9820
vn -0.1889 0.0121 -0.9819
vn -0.1870 0.0112 -0.9823
vn -0.8045 0.0270 -0.5933
vn 0.1853 -0.1282 0.9743
vn -0.5646 -0.2285 0.7931
vn -0.9625 -0.2017 0.1816
vn -0.8176 -0.2285 -0.5286
vn 0.9624 -0.2019 -0.1816
vn 0.8173 -0.2291 0.5287
vn -0.1850 -0.1288 -0.9743
vn 0.5643 -0.2291 -0.7931
vn -0.1876 -0.1282 -0.9738
vn -0.1862 -0.1339 -0.9733
vn 0.1878 -0.1288 0.9737
vn 0.1864 -0.1339 0.9733
vn 0.9615 -0.2019 -0.1866
vn 0.9621 -0.2011 -0.1841
vn -0.9615 -0.2017 0.1866
vn -0.9622 -0.2009 0.1841
vt 0.243785 0.841142
vt 0.310814 0.841143
vt 0.310814 0.882696
vt 0.243785 0.882696
vt 0.505045 0.090604
vt 0.504313 0.119255
vt 0.435829 0.118609
vt 0.436939 0.089897
vt 0.789153 0.087960
vt 0.789042 0.116535
vt 0.747058 0.116535
vt 0.747281 0.087960
vt 0.762463 0.512031
vt 0.762352 0.540313
vt 0.720368 0.540313
vt 0.720591 0.512031
vt 0.194346 0.092018
vt 0.194321 0.120548
vt 0.125837 0.121195
vt 0.126240 0.092725
vt 0.398662 0.089897
vt 0.399772 0.118609
vt 0.331288 0.119255
vt 0.330556 0.090604
vt 0.262805 0.119902
vt 0.262451 0.091311
vt 0.709361 0.092725
vt 0.709764 0.121195
vt 0.641280 0.120548
vt 0.641255 0.092018
vt 0.572796 0.119902
vt 0.573150 0.091311
vt 0.042700 0.841142
vt 0.109729 0.841142
vt 0.109729 0.882696
vt 0.042700 0.882696
vt 0.176757 0.841142
vt 0.176757 0.882696
vt 0.176757 0.716482
vt 0.243785 0.716482
vt 0.243785 0.758036
vt 0.176757 0.758036
vt 0.243785 0.799589
vt 0.176757 0.799589
vt 0.109729 0.716482
vt 0.109729 0.758036
vt 0.109729 0.799589
vt 0.042700 0.716482
vt 0.042700 0.758036
vt 0.042700 0.799589
vt 0.888080 0.512031
vt 0.888303 0.540313
vt 0.846319 0.540313
vt 0.846208 0.512031
vt 0.804335 0.540313
vt 0.804335 0.512031
vt 0.914770 0.087960
vt 0.914993 0.116535
vt 0.873009 0.116535
vt 0.872898 0.087960
vt 0.831025 0.116535
vt 0.831025 0.087960
vt 0.310814 0.716483
vt 0.310814 0.758036
vt 0.310814 0.799589
vt 0.831025 0.047092
vt 0.789313 0.047092
vt 0.872738 0.047092
vt 0.914451 0.047092
vt 0.804335 0.471585
vt 0.762623 0.471585
vt 0.846048 0.471585
vt 0.887761 0.471585
vt 0.573656 0.050423
vt 0.506092 0.049630
vt 0.641220 0.051217
vt 0.708784 0.052010
vt 0.261945 0.050423
vt 0.194381 0.051217
vt 0.329509 0.049630
vt 0.397073 0.048836
vt 0.126817 0.052010
vt 0.720910 0.471585
vt 0.747600 0.047092
vt 0.438528 0.048836
vt 0.507139 0.008655
vt 0.440116 0.007775
vt 0.789472 0.006225
vt 0.747919 0.006225
vt 0.762782 0.431138
vt 0.721229 0.431138
vt 0.194417 0.010415
vt 0.127395 0.011295
vt 0.395485 0.007775
vt 0.328462 0.008655
vt 0.261440 0.009535
vt 0.708206 0.011295
vt 0.641184 0.010415
vt 0.574161 0.009535
vt 0.887442 0.431138
vt 0.845889 0.431138
vt 0.804335 0.431138
vt 0.914132 0.006225
vt 0.872579 0.006225
vt 0.831025 0.006225
vt 0.296643 0.605613
vt 0.294996 0.605613
vt 0.295019 0.602646
vt 0.296643 0.602645
vt 0.896964 0.923901
vt 0.896495 0.940199
vt 0.891122 0.939310
vt 0.886322 0.921357
vt 0.898049 0.974005
vt 0.897048 0.982918
vt 0.891148 0.982797
vt 0.889026 0.974588
vt 0.836463 0.946499
vt 0.836531 0.937237
vt 0.839692 0.937548
vt 0.843532 0.944382
vt 0.848647 0.957656
vt 0.843714 0.941726
vt 0.850116 0.937237
vt 0.850116 0.955915
vt 0.865174 0.874041
vt 0.865509 0.890000
vt 0.860954 0.893673
vt 0.859539 0.870228
vt 0.865548 0.908554
vt 0.855008 0.909354
vt 0.864993 0.927319
vt 0.861235 0.928554
vt 0.896376 0.870228
vt 0.897081 0.886676
vt 0.886990 0.882268
vt 0.893230 0.870893
vt 0.897030 0.905262
vt 0.892627 0.907517
vt 0.296642 0.615745
vt 0.295018 0.615745
vt 0.294996 0.612778
vt 0.296643 0.612778
vt 0.294996 0.609195
vt 0.296643 0.609195
vt 0.302729 0.609194
vt 0.301082 0.609195
vt 0.301083 0.605612
vt 0.302729 0.605612
vt 0.298863 0.609195
vt 0.298863 0.605613
vt 0.302729 0.612777
vt 0.301082 0.612777
vt 0.298862 0.612777
vt 0.302707 0.615744
vt 0.301082 0.615745
vt 0.298862 0.615745
vt 0.837453 0.978693
vt 0.836570 0.969494
vt 0.843714 0.968629
vt 0.839000 0.986125
vt 0.836396 0.957846
vt 0.838487 0.955776
vt 0.897298 0.941779
vt 0.897674 0.950721
vt 0.886322 0.957227
vt 0.892085 0.940199
vt 0.898048 0.962200
vt 0.895348 0.962235
vt 0.301083 0.602644
vt 0.302708 0.602645
vt 0.298863 0.602645
vt 0.909530 0.962207
vt 0.909530 0.972808
vt 0.909530 0.951606
vt 0.909517 0.943542
vt 0.824163 0.957907
vt 0.824163 0.947303
vt 0.824163 0.968510
vt 0.824177 0.976574
vt 0.908783 0.905272
vt 0.908759 0.922448
vt 0.908807 0.888096
vt 0.908762 0.873605
vt 0.877784 0.908566
vt 0.877808 0.925742
vt 0.877761 0.891390
vt 0.877672 0.876897
vt 0.877760 0.940233
vt 0.864419 0.943998
vt 0.824177 0.939239
vt 0.909517 0.980869
vt 0.908673 0.936942
vt 0.917296 0.923612
vt 0.917430 0.938789
vt 0.918154 0.973611
vt 0.918280 0.981924
vt 0.815580 0.946549
vt 0.815453 0.938236
vt 0.886183 0.926890
vt 0.886322 0.942066
vt 0.886322 0.875067
vt 0.886183 0.890245
vt 0.886183 0.908568
vt 0.917430 0.871789
vt 0.917296 0.886967
vt 0.917296 0.905289
vt 0.815453 0.977581
vt 0.815580 0.969267
vt 0.815580 0.957908
vt 0.918280 0.942585
vt 0.918154 0.950898
vt 0.918154 0.962255
s 0
usemtl mat_checkpoint
f 41/1/1 24/2/1 2/3/1 14/4/1
s 1
f 51/5/2 17/6/3 5/7/4 42/8/5
f 57/9/6 29/10/7 7/11/8 43/12/9
f 54/13/10 32/14/11 8/15/12 44/16/13
f 48/17/14 20/18/15 6/19/16 45/20/17
f 43/21/9 7/22/8 18/23/18 46/24/19
f 46/24/19 18/23/18 19/25/20 47/26/21
f 47/26/21 19/25/20 20/18/15 48/17/14
f 44/27/13 8/28/12 15/29/22 49/30/23
f 49/30/23 15/29/22 16/31/24 50/32/25
f 50/32/25 16/31/24 17/6/3 51/5/2
s 0
f 23/33/1 35/34/1 12/35/1 4/36/1
f 35/34/1 38/37/1 13/38/1 12/35/1
f 38/37/1 41/1/1 14/4/1 13/38/1
f 10/39/1 9/40/1 39/41/1 36/42/1
f 36/42/1 39/41/1 40/43/1 37/44/1
f 37/44/1 40/43/1 41/1/1 38/37/1
f 11/45/1 10/39/1 36/42/1 33/46/1
f 33/46/1 36/42/1 37/44/1 34/47/1
f 34/47/1 37/44/1 38/37/1 35/34/1
f 3/48/1 11/45/1 33/46/1 21/49/1
f 21/49/1 33/46/1 34/47/1 22/50/1
f 22/50/1 34/47/1 35/34/1 23/33/1
s 1
f 45/51/17 6/52/16 30/53/26 52/54/27
f 52/54/27 30/53/26 31/55/28 53/56/29
f 53/56/29 31/55/28 32/14/11 54/13/10
f 42/57/5 5/58/4 27/59/30 55/60/31
f 55/60/31 27/59/30 28/61/32 56/62/33
f 56/62/33 28/61/32 29/10/7 57/9/6
s 0
f 9/40/1 1/63/1 26/64/1 39/41/1
f 39/41/1 26/64/1 25/65/1 40/43/1
f 40/43/1 25/65/1 24/2/1 41/1/1
s 1
f 71/66/34 56/62/33 57/9/6 72/67/34
f 70/68/34 55/60/31 56/62/33 71/66/34
f 58/69/35 42/57/5 55/60/31 70/68/34
f 68/70/36 53/56/29 54/13/10 69/71/36
f 67/72/36 52/54/27 53/56/29 68/70/36
f 73/73/37 45/51/17 52/54/27 67/72/36
f 65/74/38 50/32/25 51/5/2 66/75/38
f 64/76/39 49/30/23 50/32/25 65/74/38
f 60/77/40 44/27/13 49/30/23 64/76/39
f 62/78/41 47/26/21 48/17/14 63/79/42
f 61/80/41 46/24/19 47/26/21 62/78/41
f 59/81/43 43/21/9 46/24/19 61/80/41
f 63/79/42 48/17/14 45/20/17 73/82/37
f 69/71/36 54/13/10 44/16/13 60/83/40
f 72/67/34 57/9/6 43/12/9 59/84/43
f 66/75/38 51/5/2 42/8/5 58/85/35
f 9/86/44 66/75/38 58/85/35 1/87/45
f 24/88/46 72/67/34 59/84/43 2/89/47
f 21/90/48 69/71/36 60/83/40 3/91/49
f 12/92/50 63/79/42 73/82/37 4/93/51
f 2/94/47 59/81/43 61/80/41 14/95/52
f 14/95/52 61/80/41 62/78/41 13/96/53
f 13/96/53 62/78/41 63/79/42 12/92/50
f 3/97/49 60/77/40 64/76/39 11/98/54
f 11/98/54 64/76/39 65/74/38 10/99/55
f 10/99/55 65/74/38 66/75/38 9/86/44
f 4/100/51 73/73/37 67/72/36 23/101/48
f 23/101/48 67/72/36 68/70/36 22/102/48
f 22/102/48 68/70/36 69/71/36 21/90/48
f 1/103/45 58/69/35 70/68/34 26/104/46
f 26/104/46 70/68/34 71/66/34 25/105/46
f 25/105/46 71/66/34 72/67/34 24/88/46
s 0
f 74/106/56 75/107/56 76/108/56 77/109/56
s 1
f 78/110/57 79/111/58 80/112/59 81/113/60
f 82/114/61 83/115/62 84/116/63 85/117/64
f 86/118/65 87/119/66 88/120/67 89/121/68
f 90/122/69 91/123/70 92/124/71 93/125/72
f 83/126/62 94/127/73 95/128/74 84/129/63
f 94/127/73 96/130/75 97/131/76 95/128/74
f 96/130/75 90/132/69 93/133/72 97/131/76
f 87/134/66 98/135/77 99/136/78 88/137/67
f 98/135/77 100/138/79 101/139/80 99/136/78
f 100/138/79 78/110/57 81/113/60 101/139/80
s 0
f 102/140/81 103/141/81 104/142/81 105/143/81
f 105/143/82 104/142/82 106/144/82 107/145/82
f 107/145/82 106/144/82 75/107/82 74/106/82
f 108/146/82 109/147/82 110/148/82 111/149/82
f 109/147/82 112/150/82 113/151/82 110/148/82
f 112/150/82 107/145/82 74/106/82 113/151/82
f 114/152/82 115/153/82 109/147/82 108/146/82
f 115/153/82 116/154/82 112/150/82 109/147/82
f 116/154/82 105/143/82 107/145/82 112/150/82
f 117/155/83 118/156/83 115/153/83 114/152/83
f 118/156/82 119/157/82 116/154/82 115/153/82
f 119/157/82 102/140/82 105/143/82 116/154/82
s 1
f 91/158/70 120/159/84 121/160/85 92/161/71
f 120/159/84 122/162/86 123/163/87 121/160/85
f 122/162/86 86/118/65 89/121/68 123/163/87
f 79/164/58 124/165/88 125/166/89 80/167/59
f 124/165/88 126/168/90 127/169/91 125/166/89
f 126/168/90 82/114/61 85/117/64 127/169/91
s 0
f 111/149/92 110/148/92 128/170/92 129/171/92
f 110/148/82 113/151/82 130/172/82 128/170/82
f 113/151/82 74/106/82 77/109/82 130/172/82
s 1
f 131/173/93 132/174/94 82/114/61 126/168/90
f 133/175/95 131/173/93 126/168/90 124/165/88
f 134/176/96 133/175/95 124/165/88 79/164/58
f 135/177/97 136/178/98 86/118/65 122/162/86
f 137/179/99 135/177/97 122/162/86 120/159/84
f 138/180/100 137/179/99 120/159/84 91/158/70
f 139/181/101 140/182/102 78/110/57 100/138/79
f 141/183/103 139/181/101 100/138/79 98/135/77
f 142/184/104 141/183/103 98/135/77 87/134/66
f 143/185/105 144/186/106 90/132/69 96/130/75
f 145/187/107 143/185/105 96/130/75 94/127/73
f 146/188/108 145/187/107 94/127/73 83/126/62
f 144/186/106 138/189/100 91/190/70 90/132/69
f 136/178/98 142/191/104 87/119/66 86/118/65
f 132/174/94 146/192/108 83/115/62 82/114/61
f 140/182/102 134/193/96 79/111/58 78/110/57
f 111/194/109 129/195/110 134/193/96 140/182/102
f 77/196/111 76/197/112 146/192/108 132/174/94
f 118/198/113 117/199/114 142/191/104 136/178/98
f 104/200/115 103/201/116 138/189/100 144/186/106
f 76/202/112 75/203/117 145/187/107 146/188/108
f 75/203/117 106/204/118 143/185/105 145/187/107
f 106/204/118 104/200/115 144/186/106 143/185/105
f 117/205/114 114/206/119 141/183/103 142/184/104
f 114/206/119 108/207/120 139/181/101 141/183/103
f 108/207/120 111/194/109 140/182/102 139/181/101
f 103/208/116 102/209/121 137/179/99 138/180/100
f 102/209/121 119/210/122 135/177/97 137/179/99
f 119/210/122 118/198/113 136/178/98 135/177/97
f 129/211/110 128/212/123 133/175/95 134/176/96
f 128/212/123 130/213/124 131/173/93 133/175/95
f 130/213/124 77/196/111 132/174/94 131/173/93
f 31/55/28 30/53/26 121/53/85 123/55/87
f 18/23/18 7/22/8 84/22/63 95/23/74
f 32/14/11 31/55/28 123/55/87 89/14/68
f 19/25/20 18/23/18 95/23/74 97/25/76
f 5/7/4 17/6/3 81/6/60 80/7/59
f 20/18/15 19/25/20 97/25/76 93/18/72
f 7/11/8 29/10/7 85/10/64 84/11/63
f 27/59/30 5/58/4 80/58/59 125/59/89
f 8/15/12 32/14/11 89/14/68 88/15/67
f 28/61/32 27/59/30 125/59/89 127/61/91
f 15/29/22 8/28/12 88/28/67 99/29/78
f 6/19/16 20/18/15 93/18/72 92/19/71
f 29/10/7 28/61/32 127/61/91 85/10/64
f 16/31/24 15/29/22 99/29/78 101/31/80
f 30/53/26 6/52/16 92/52/71 121/53/85
f 17/6/3 16/31/24 101/31/80 81/6/60
