# Blender 4.3.2
# www.blender.org
mtllib DeathPlatform.mtl
o platform
v 0.651772 0.000000 -0.776752
v 0.000000 0.000000 -1.013977
v 0.998572 0.000000 -0.176075
v 0.878130 0.000000 0.506988
v 0.346801 0.000000 0.952827
v -0.346801 0.000000 0.952827
v -0.878130 0.000000 0.506988
v -0.998572 0.000000 -0.176075
v -0.651772 0.000000 -0.776752
v 0.000000 -0.286219 -1.013977
v 0.651772 -0.286219 -0.776752
v 0.998572 -0.286219 -0.176075
v 0.878130 -0.286219 0.506988
v 0.346801 -0.286219 0.952827
v -0.346801 -0.286219 0.952827
v -0.878130 -0.286219 0.506988
v -0.998572 -0.286219 -0.176075
v -0.651772 -0.286219 -0.776752
v 0.000000 -0.580790 -0.926530
v 0.595562 -0.580790 -0.709763
v 0.912454 -0.580790 -0.160890
v 0.802398 -0.580790 0.463265
v 0.316892 -0.580790 0.870653
v -0.316892 -0.580790 0.870653
v -0.802398 -0.580790 0.463265
v -0.912454 -0.580790 -0.160890
v -0.595562 -0.580790 -0.709763
v 0.000000 -0.828883 -0.600119
v 0.385749 -0.828883 -0.459718
v 0.591002 -0.828883 -0.104210
v 0.519719 -0.828883 0.300060
v 0.205253 -0.828883 0.563928
v -0.205253 -0.828883 0.563928
v -0.519719 -0.828883 0.300060
v -0.591002 -0.828883 -0.104210
v -0.385749 -0.828883 -0.459718
v 0.000000 -0.939255 -0.182885
v 0.117556 -0.939255 -0.140098
v 0.180106 -0.939255 -0.031758
v 0.158383 -0.939255 0.091442
v 0.062550 -0.939255 0.171856
v -0.062550 -0.939255 0.171856
v -0.158383 -0.939255 0.091442
v -0.180106 -0.939255 -0.031758
v -0.117556 -0.939255 -0.140098
vn -0.0000 1.0000 -0.0000
vn -0.9752 -0.1395 -0.1719
vn -0.8296 -0.5388 -0.1463
vn -0.7296 -0.5388 0.4212
vn -0.8576 -0.1395 0.4951
vn -0.8660 -0.0000 0.5000
vn -0.3387 -0.1395 0.9305
vn -0.3420 -0.0000 0.9397
vn 0.8660 -0.0000 0.5000
vn 0.8576 -0.1395 0.4951
vn 0.9752 -0.1395 -0.1719
vn 0.9848 -0.0000 -0.1736
vn -0.9848 -0.0000 -0.1736
vn 0.3420 -0.0000 0.9397
vn 0.3387 -0.1395 0.9305
vn 0.6428 -0.0000 -0.7660
vn 0.6365 -0.1395 -0.7586
vn -0.0000 -0.1395 -0.9902
vn -0.0000 -0.0000 -1.0000
vn -0.6428 -0.0000 -0.7660
vn -0.6365 -0.1395 -0.7586
vn -0.4090 -0.8815 0.2361
vn -0.1615 -0.8815 0.4438
vn -0.2881 -0.5388 0.7916
vn 0.2881 -0.5388 0.7916
vn 0.7296 -0.5388 0.4212
vn 0.5415 -0.5388 -0.6454
vn -0.0000 -0.5388 -0.8424
vn -0.5415 -0.5388 -0.6454
vn 0.8296 -0.5388 -0.1463
vn -0.0537 -0.9876 0.1474
vn 0.0537 -0.9876 0.1474
vn 0.1615 -0.8815 0.4438
vn 0.4090 -0.8815 0.2361
vn 0.4651 -0.8815 -0.0820
vn -0.4651 -0.8815 -0.0820
vn 0.3035 -0.8815 -0.3618
vn -0.0000 -0.8815 -0.4722
vn -0.3035 -0.8815 -0.3618
vn 0.1008 -0.9876 -0.1202
vn 0.1545 -0.9876 -0.0272
vn 0.1359 -0.9876 0.0784
vn -0.1359 -0.9876 0.0784
vn -0.1545 -0.9876 -0.0272
vn -0.1008 -0.9876 -0.1202
vn -0.0000 -0.9876 -0.1569
vt 0.385255 0.411190
vt 0.250000 0.460419
vt 0.114745 0.411190
vt 0.042778 0.286539
vt 0.067772 0.144791
vt 0.178033 0.052271
vt 0.321968 0.052271
vt 0.432228 0.144791
vt 0.457222 0.286539
vt 0.666077 0.818659
vt 0.666077 0.725821
vt 0.777086 0.725821
vt 0.777086 0.818659
vt 0.777086 0.906856
vt 0.888095 0.818659
vt 0.888095 0.906856
vt 0.111029 0.906856
vt 0.111029 0.818659
vt 0.222039 0.818659
vt 0.222039 0.906856
vt 0.666077 0.906856
vt 0.000020 0.906856
vt 0.000020 0.818659
vt 0.333048 0.906856
vt 0.333048 0.818659
vt 0.444058 0.818659
vt 0.444058 0.906856
vt 0.555067 0.906856
vt 0.555067 0.818659
vt 0.999105 0.818659
vt 0.999105 0.906856
vt 0.222039 0.906856
vt 0.222039 0.818659
vt 0.777086 0.647631
vt 0.888095 0.647631
vt 0.888095 0.725821
vt 0.000020 0.725821
vt 0.111029 0.725821
vt 0.333048 0.725821
vt 0.444058 0.725821
vt 0.555067 0.725821
vt 0.999105 0.725821
vt 0.222039 0.725821
vt 0.222039 0.725821
vt 0.888095 0.612846
vt 0.999105 0.612846
vt 0.999105 0.647631
vt 0.111029 0.647631
vt 0.222039 0.647631
vt 0.666077 0.647631
vt 0.000020 0.647631
vt 0.333048 0.647631
vt 0.444058 0.647631
vt 0.555067 0.647631
vt 0.222039 0.647631
vt 0.790999 0.569898
vt 0.804532 0.546458
vt 0.799832 0.519803
vt 0.779098 0.502405
vt 0.752032 0.502405
vt 0.731298 0.519803
vt 0.726598 0.546458
vt 0.740131 0.569898
vt 0.765565 0.579156
vt 0.222039 0.612846
vt 0.333048 0.612846
vt 0.444058 0.612846
vt 0.555067 0.612846
vt 0.777086 0.612846
vt 0.111029 0.612846
vt 0.222039 0.612846
vt 0.666077 0.612846
vt 0.000020 0.612846
s 0
usemtl mat_deathplatform
f 1/1/1 2/2/1 9/3/1 8/4/1 7/5/1 6/6/1 5/7/1 4/8/1 3/9/1
s 1
f 17/10/2 26/11/3 25/12/4 16/13/5
f 7/14/6 16/13/5 15/15/7 6/16/8
f 4/17/9 13/18/10 12/19/11 3/20/12
f 8/21/13 17/10/2 16/13/5 7/14/6
f 5/22/14 14/23/15 13/18/10 4/17/9
f 1/24/16 11/25/17 10/26/18 2/27/19
f 9/28/20 18/29/21 17/10/2 8/21/13
f 6/16/8 15/15/7 14/30/15 5/31/14
f 3/32/12 12/33/11 11/25/17 1/24/16
f 2/27/19 10/26/18 18/29/21 9/28/20
f 25/12/4 34/34/22 33/35/23 24/36/24
f 14/23/15 23/37/25 22/38/26 13/18/10
f 11/25/17 20/39/27 19/40/28 10/26/18
f 18/29/21 27/41/29 26/11/3 17/10/2
f 15/15/7 24/36/24 23/42/25 14/30/15
f 12/33/11 21/43/30 20/39/27 11/25/17
f 10/26/18 19/40/28 27/41/29 18/29/21
f 16/13/5 25/12/4 24/36/24 15/15/7
f 13/18/10 22/38/26 21/44/30 12/19/11
f 33/35/23 42/45/31 41/46/32 32/47/33
f 22/38/26 31/48/34 30/49/35 21/44/30
f 26/11/3 35/50/36 34/34/22 25/12/4
f 23/37/25 32/51/33 31/48/34 22/38/26
f 20/39/27 29/52/37 28/53/38 19/40/28
f 27/41/29 36/54/39 35/50/36 26/11/3
f 24/36/24 33/35/23 32/47/33 23/42/25
f 21/43/30 30/55/35 29/52/37 20/39/27
f 19/40/28 28/53/38 36/54/39 27/41/29
f 38/56/40 39/57/41 40/58/42 41/59/32 42/60/31 43/61/43 44/62/44 45/63/45 37/64/46
f 30/55/35 39/65/41 38/66/40 29/52/37
f 28/53/38 37/67/46 45/68/45 36/54/39
f 34/34/22 43/69/43 42/45/31 33/35/23
f 31/48/34 40/70/42 39/71/41 30/49/35
f 35/50/36 44/72/44 43/69/43 34/34/22
f 32/51/33 41/73/32 40/70/42 31/48/34
f 29/52/37 38/66/40 37/67/46 28/53/38
f 36/54/39 45/68/45 44/72/44 35/50/36
