# Blender 4.4.0
# www.blender.org
mtllib EndPlatform.mtl
o Cylinder
v 0.000000 0.000000 -1.000000
v 0.000000 0.420000 -0.984851
v 0.309017 0.000000 -0.951057
v 0.304330 0.421905 -0.936649
v 0.587785 0.000000 -0.809017
v 0.578870 0.423624 -0.796762
v 0.809017 0.000000 -0.587785
v 0.796746 0.424988 -0.578881
v 0.951057 0.000000 -0.309017
v 0.936631 0.425864 -0.304336
v 1.000000 0.000000 0.000000
v 0.984832 0.426166 0.000000
v 0.951057 0.000000 0.309017
v 0.936631 0.425864 0.304336
v 0.809017 0.000000 0.587785
v 0.796746 0.424988 0.578881
v 0.587785 0.000000 0.809017
v 0.578870 0.423624 0.796762
v 0.309017 0.000000 0.951057
v 0.304330 0.421905 0.936649
v 0.000000 0.000000 1.000000
v -0.000000 0.420000 0.984851
v -0.309017 0.000000 0.951057
v -0.304330 0.418095 0.936649
v -0.587785 0.000000 0.809017
v -0.578870 0.416376 0.796762
v -0.809017 0.000000 0.587785
v -0.796746 0.415012 0.578881
v -0.951057 0.000000 0.309017
v -0.936631 0.414136 0.304336
v -1.000000 0.000000 0.000000
v -0.984832 0.413834 -0.000000
v -0.951057 0.000000 -0.309017
v -0.936631 0.414136 -0.304336
v -0.809017 0.000000 -0.587785
v -0.796746 0.415012 -0.578881
v -0.587785 0.000000 -0.809017
v -0.578870 0.416376 -0.796762
v -0.309017 0.000000 -0.951057
v -0.304330 0.418095 -0.936649
v -0.882419 0.170420 -0.097717
v -1.093922 0.278046 -0.097717
v -0.844039 0.245841 -0.048858
v -1.055543 0.353468 -0.048858
v -0.844039 0.245841 0.048858
v -1.055543 0.353468 0.048858
v -0.882419 0.170420 0.097717
v -1.093922 0.278046 0.097717
v -0.920798 0.094998 0.048858
v -1.132302 0.202624 0.048858
v -0.920798 0.094998 -0.048858
v -1.132302 0.202624 -0.048858
v 0.882419 0.170420 -0.097717
v 1.093922 0.278046 -0.097717
v 0.844039 0.245841 -0.048858
v 1.055543 0.353468 -0.048858
v 0.844039 0.245841 0.048858
v 1.055543 0.353468 0.048858
v 0.882419 0.170420 0.097717
v 1.093922 0.278046 0.097717
v 0.920798 0.094998 0.048858
v 1.132302 0.202624 0.048858
v 0.920798 0.094998 -0.048858
v 1.132302 0.202624 -0.048858
vn -0.0001 0.0360 -0.9994
vn 0.0005 0.0360 -0.9994
vn 0.3093 0.0359 -0.9503
vn 0.3087 0.0359 -0.9505
vn 0.5877 0.0358 -0.8083
vn 0.5873 0.0358 -0.8085
vn 0.8087 0.0357 -0.5872
vn 0.8085 0.0357 -0.5875
vn 0.9505 0.0356 -0.3087
vn 0.9504 0.0356 -0.3088
vn 0.9994 0.0356 -0.0000
vn 0.9505 0.0356 0.3087
vn 0.9504 0.0356 0.3088
vn 0.8087 0.0357 0.5872
vn 0.8085 0.0357 0.5875
vn 0.5877 0.0358 0.8083
vn 0.5873 0.0358 0.8085
vn 0.3093 0.0359 0.9503
vn 0.3087 0.0359 0.9505
vn 0.0005 0.0360 0.9993
vn -0.0001 0.0360 0.9994
vn -0.3084 0.0362 0.9506
vn -0.3089 0.0362 0.9504
vn -0.5871 0.0364 0.8087
vn -0.5875 0.0364 0.8084
vn -0.8083 0.0365 0.5876
vn -0.8085 0.0365 0.5873
vn -0.9504 0.0366 0.3090
vn -0.9504 0.0366 0.3088
vn -0.9993 0.0366 -0.0000
vn -0.9504 0.0366 -0.3090
vn -0.9504 0.0366 -0.3088
vn -0.8083 0.0365 -0.5876
vn -0.8085 0.0365 -0.5873
vn -0.5871 0.0364 -0.8087
vn -0.5875 0.0364 -0.8084
vn -0.0063 1.0000 -0.0000
vn -0.3084 0.0362 -0.9506
vn -0.3089 0.0362 -0.9504
vn -0.0000 -1.0000 -0.0000
vn 0.2268 0.4456 -0.8660
vn 0.4535 0.8912 -0.0000
vn 0.2268 0.4456 0.8660
vn -0.2268 -0.4456 0.8660
vn -0.8912 0.4535 -0.0000
vn -0.4535 -0.8912 -0.0000
vn -0.2268 -0.4456 -0.8660
vn 0.8912 -0.4535 -0.0000
vn -0.2268 0.4456 -0.8660
vn -0.4535 0.8912 -0.0000
vn -0.2268 0.4456 0.8660
vn 0.2268 -0.4456 0.8660
vn 0.8912 0.4535 -0.0000
vn 0.4535 -0.8912 -0.0000
vn 0.2268 -0.4456 -0.8660
vn -0.8912 -0.4535 -0.0000
vt 1.000000 0.744035
vt 1.000000 0.854405
vt 0.950000 0.854405
vt 0.950000 0.744035
vt 0.900000 0.854405
vt 0.900000 0.744035
vt 0.850000 0.854405
vt 0.850000 0.744035
vt 0.800000 0.854405
vt 0.800000 0.744035
vt 0.750000 0.854405
vt 0.750000 0.744035
vt 0.700000 0.854405
vt 0.700000 0.744035
vt 0.650000 0.854405
vt 0.650000 0.744035
vt 0.600000 0.854405
vt 0.600000 0.744035
vt 0.550000 0.854405
vt 0.550000 0.744035
vt 0.500000 0.854405
vt 0.500000 0.744035
vt 0.450000 0.854405
vt 0.450000 0.744035
vt 0.400000 0.854405
vt 0.400000 0.744035
vt 0.350000 0.854405
vt 0.350000 0.744035
vt 0.300000 0.854405
vt 0.300000 0.744035
vt 0.250000 0.854405
vt 0.250000 0.744035
vt 0.200000 0.854405
vt 0.200000 0.744035
vt 0.150000 0.854405
vt 0.150000 0.744035
vt 0.100000 0.854405
vt 0.100000 0.744035
vt 0.368670 0.420480
vt 0.313278 0.429253
vt 0.257886 0.420480
vt 0.207916 0.395019
vt 0.168260 0.355362
vt 0.142799 0.305392
vt 0.134025 0.250000
vt 0.142799 0.194608
vt 0.168260 0.144638
vt 0.207916 0.104981
vt 0.257886 0.079520
vt 0.313278 0.070747
vt 0.368670 0.079520
vt 0.418640 0.104981
vt 0.458297 0.144638
vt 0.483758 0.194608
vt 0.492531 0.250000
vt 0.483758 0.305392
vt 0.458297 0.355362
vt 0.418640 0.395019
vt 0.050000 0.854405
vt 0.050000 0.744035
vt -0.000000 0.854405
vt -0.000000 0.744035
vt 0.686722 0.429253
vt 0.742114 0.420480
vt 0.792084 0.395019
vt 0.831740 0.355362
vt 0.857201 0.305392
vt 0.865975 0.250000
vt 0.857201 0.194608
vt 0.831740 0.144638
vt 0.792084 0.104981
vt 0.742114 0.079520
vt 0.686722 0.070747
vt 0.631330 0.079520
vt 0.581360 0.104981
vt 0.541703 0.144638
vt 0.516242 0.194608
vt 0.507469 0.250000
vt 0.516242 0.305392
vt 0.541703 0.355362
vt 0.581360 0.395019
vt 0.631330 0.420480
vt 0.422955 0.651089
vt 0.422955 0.689561
vt 0.416264 0.689561
vt 0.416264 0.651089
vt 0.409573 0.689561
vt 0.409573 0.651089
vt 0.402882 0.689561
vt 0.402882 0.651089
vt 0.396191 0.689561
vt 0.396191 0.651089
vt 0.281000 0.643589
vt 0.299716 0.664784
vt 0.290718 0.691591
vt 0.263004 0.697202
vt 0.244287 0.676006
vt 0.253286 0.649199
vt 0.389500 0.689561
vt 0.389500 0.651089
vt 0.382809 0.689561
vt 0.382809 0.651089
vt 0.339277 0.697749
vt 0.363766 0.683611
vt 0.363766 0.655334
vt 0.339277 0.641196
vt 0.314789 0.655334
vt 0.314789 0.683611
s 1
usemtl mat_endplatform
f 1/1/1 2/2/2 4/3/3 3/4/4
f 3/4/4 4/3/3 6/5/5 5/6/6
f 5/6/6 6/5/5 8/7/7 7/8/8
f 7/8/8 8/7/7 10/9/9 9/10/10
f 9/10/10 10/9/9 12/11/11 11/12/11
f 11/12/11 12/11/11 14/13/12 13/14/13
f 13/14/13 14/13/12 16/15/14 15/16/15
f 15/16/15 16/15/14 18/17/16 17/18/17
f 17/18/17 18/17/16 20/19/18 19/20/19
f 19/20/19 20/19/18 22/21/20 21/22/21
f 21/22/21 22/21/20 24/23/22 23/24/23
f 23/24/23 24/23/22 26/25/24 25/26/25
f 25/26/25 26/25/24 28/27/26 27/28/27
f 27/28/27 28/27/26 30/29/28 29/30/29
f 29/30/29 30/29/28 32/31/30 31/32/30
f 31/32/30 32/31/30 34/33/31 33/34/32
f 33/34/32 34/33/31 36/35/33 35/36/34
f 35/36/34 36/35/33 38/37/35 37/38/36
s 0
f 4/39/37 2/40/37 40/41/37 38/42/37 36/43/37 34/44/37 32/45/37 30/46/37 28/47/37 26/48/37 24/49/37 22/50/37 20/51/37 18/52/37 16/53/37 14/54/37 12/55/37 10/56/37 8/57/37 6/58/37
s 1
f 37/38/36 38/37/35 40/59/38 39/60/39
f 39/60/39 40/59/38 2/61/2 1/62/1
s 0
f 1/63/40 3/64/40 5/65/40 7/66/40 9/67/40 11/68/40 13/69/40 15/70/40 17/71/40 19/72/40 21/73/40 23/74/40 25/75/40 27/76/40 29/77/40 31/78/40 33/79/40 35/80/40 37/81/40 39/82/40
f 41/83/41 42/84/41 44/85/41 43/86/41
f 43/86/42 44/85/42 46/87/42 45/88/42
f 45/88/43 46/87/43 48/89/43 47/90/43
f 47/90/44 48/89/44 50/91/44 49/92/44
f 44/93/45 42/94/45 52/95/45 50/96/45 48/97/45 46/98/45
f 49/92/46 50/91/46 52/99/46 51/100/46
f 51/100/47 52/99/47 42/101/47 41/102/47
f 41/103/48 43/104/48 45/105/48 47/106/48 49/107/48 51/108/48
f 53/83/49 55/86/49 56/85/49 54/84/49
f 55/86/50 57/88/50 58/87/50 56/85/50
f 57/88/51 59/90/51 60/89/51 58/87/51
f 59/90/52 61/92/52 62/91/52 60/89/52
f 56/93/53 58/98/53 60/97/53 62/96/53 64/95/53 54/94/53
f 61/92/54 63/100/54 64/99/54 62/91/54
f 63/100/55 53/102/55 54/101/55 64/99/55
f 53/103/56 63/108/56 61/107/56 59/106/56 57/105/56 55/104/56
