# Blender 4.3.0
# www.blender.org
o Cube
v -0.000000 -0.823962 0.000000
v 0.823693 0.401423 0.823693
v -0.000000 0.399278 1.113959
v 1.113959 0.399278 0.000000
v 0.519898 -0.230851 0.519898
v 0.735225 -0.230851 -0.000000
v -0.000000 -0.230851 0.735225
v -0.000000 0.633330 0.904489
v 0.295759 0.747141 0.622644
v 0.680099 0.630759 0.680099
v 0.625245 0.747141 0.289486
v 0.902426 0.635787 0.000000
v 0.466155 0.358532 1.042010
v 1.043954 0.358518 0.460641
v 0.828785 0.332590 0.828785
v 1.120952 0.323852 0.000000
v -0.000000 0.323852 1.120952
v -0.823693 0.401423 0.823693
v -1.113959 0.399278 0.000000
v -0.519898 -0.230851 0.519898
v -0.735225 -0.230851 -0.000000
v -0.295759 0.747141 0.622644
v -0.680099 0.630759 0.680099
v -0.625245 0.747141 0.289486
v -0.902426 0.635787 0.000000
v -0.466155 0.358532 1.042010
v -1.043954 0.358518 0.460641
v -0.828785 0.332590 0.828785
v -1.120952 0.323852 0.000000
v 0.823693 0.401423 -0.823693
v -0.000000 0.399278 -1.113959
v 0.519898 -0.230851 -0.519898
v -0.000000 -0.230851 -0.735225
v -0.000000 0.633330 -0.904489
v 0.295759 0.747141 -0.622644
v 0.680099 0.630759 -0.680099
v 0.625245 0.747141 -0.289486
v 0.466155 0.358532 -1.042010
v 1.043954 0.358518 -0.460641
v 0.828785 0.332590 -0.828785
v -0.000000 0.323852 -1.120952
v -0.823693 0.401423 -0.823693
v -0.519898 -0.230851 -0.519898
v -0.295759 0.747141 -0.622644
v -0.680099 0.630759 -0.680099
v -0.625245 0.747141 -0.289486
v -0.466155 0.358532 -1.042010
v -1.043954 0.358518 -0.460641
v -0.828785 0.332590 -0.828785
vn 0.6649 -0.6943 0.2754
vn 0.2754 -0.6944 0.6648
vn 0.2473 0.9375 0.2446
vn 0.1597 0.0911 0.9830
vn 0.1708 0.6571 0.7342
vn 0.7114 -0.5950 0.3739
vn 0.1786 -0.5617 0.8078
vn 0.2069 0.7581 0.6184
vn 0.6185 0.7578 0.2078
vn 0.9833 0.0912 0.1575
vn 0.7345 0.6570 0.1698
vn 0.8558 0.1008 0.5073
vn 0.6863 0.6428 0.3404
vn 0.5096 0.1009 0.8545
vn 0.3415 0.6430 0.6855
vn 0.3752 -0.5952 0.7106
vn 0.8080 -0.5619 0.1773
vn -0.6649 -0.6943 0.2754
vn -0.2754 -0.6944 0.6648
vn -0.2473 0.9375 0.2446
vn -0.1597 0.0911 0.9830
vn -0.1708 0.6571 0.7342
vn -0.7114 -0.5950 0.3739
vn -0.1786 -0.5617 0.8078
vn -0.2069 0.7581 0.6184
vn -0.6185 0.7578 0.2078
vn -0.9833 0.0912 0.1575
vn -0.7345 0.6570 0.1698
vn -0.8558 0.1008 0.5073
vn -0.6863 0.6428 0.3404
vn -0.5096 0.1009 0.8545
vn -0.3415 0.6430 0.6855
vn -0.3752 -0.5952 0.7106
vn -0.8080 -0.5619 0.1773
vn 0.6649 -0.6943 -0.2754
vn 0.2754 -0.6944 -0.6648
vn 0.2473 0.9375 -0.2446
vn 0.1597 0.0911 -0.9830
vn 0.1708 0.6571 -0.7342
vn 0.7114 -0.5950 -0.3739
vn 0.1786 -0.5617 -0.8078
vn 0.2069 0.7581 -0.6184
vn 0.6185 0.7578 -0.2078
vn 0.9833 0.0912 -0.1575
vn 0.7345 0.6570 -0.1698
vn 0.8558 0.1008 -0.5073
vn 0.6863 0.6428 -0.3404
vn 0.5096 0.1009 -0.8545
vn 0.3415 0.6430 -0.6855
vn 0.3752 -0.5952 -0.7106
vn 0.8080 -0.5619 -0.1773
vn -0.6649 -0.6943 -0.2754
vn -0.2754 -0.6944 -0.6648
vn -0.2473 0.9375 -0.2446
vn -0.1597 0.0911 -0.9830
vn -0.1708 0.6571 -0.7342
vn -0.7114 -0.5950 -0.3739
vn -0.1786 -0.5617 -0.8078
vn -0.2069 0.7581 -0.6184
vn -0.6185 0.7578 -0.2078
vn -0.9833 0.0912 -0.1575
vn -0.7345 0.6570 -0.1698
vn -0.8558 0.1008 -0.5073
vn -0.6863 0.6428 -0.3404
vn -0.5096 0.1009 -0.8545
vn -0.3415 0.6430 -0.6855
vn -0.3752 -0.5952 -0.7106
vn -0.8080 -0.5619 -0.1773
vn -0.0000 0.9273 0.3744
vn -0.3728 0.9279 -0.0000
vn -0.0000 0.9273 -0.3744
vn 0.3728 0.9279 -0.0000
vn -0.0000 1.0000 -0.0000
vt 0.000000 0.000000
vt 0.375000 0.750000
vt 0.575767 0.750000
vt 0.625000 0.688689
vt 0.625000 0.809805
vt 0.434087 0.809087
vt 0.375000 0.625000
vt 0.434087 0.684087
s 0
f 6/1/1 14/1/1 5/1/1 1/2/1
f 1/2/2 5/1/2 13/1/2 7/1/2
f 10/3/3 11/4/3 9/5/3
f 17/1/4 13/1/4 3/1/4
f 13/1/5 8/1/5 3/1/5
f 15/1/6 5/1/6 14/1/6
f 17/1/7 7/1/7 13/1/7
f 9/1/8 8/1/8 13/1/8 10/1/8
f 11/1/9 10/1/9 14/1/9 12/1/9
f 4/1/10 14/1/10 16/1/10
f 4/1/11 12/1/11 14/1/11
f 15/1/12 14/1/12 2/1/12
f 10/1/13 2/1/13 14/1/13
f 15/1/14 2/1/14 13/1/14
f 2/1/15 10/1/15 13/1/15
f 13/1/16 5/1/16 15/1/16
f 6/1/17 16/1/17 14/1/17
f 21/1/18 1/2/18 20/1/18 27/1/18
f 1/2/19 7/1/19 26/1/19 20/1/19
f 23/3/20 22/5/20 24/4/20
f 17/1/21 3/1/21 26/1/21
f 26/1/22 3/1/22 8/1/22
f 28/1/23 27/1/23 20/1/23
f 17/1/24 26/1/24 7/1/24
f 22/1/25 23/1/25 26/1/25 8/1/25
f 24/1/26 25/1/26 27/1/26 23/1/26
f 19/1/27 29/1/27 27/1/27
f 19/1/28 27/1/28 25/1/28
f 28/1/29 18/1/29 27/1/29
f 23/1/30 27/1/30 18/1/30
f 28/1/31 26/1/31 18/1/31
f 18/1/32 26/1/32 23/1/32
f 26/1/33 28/1/33 20/1/33
f 21/1/34 27/1/34 29/1/34
f 6/1/35 1/2/35 32/1/35 39/1/35
f 1/2/36 33/6/36 38/1/36 32/1/36
f 36/3/37 35/5/37 37/4/37
f 41/1/38 31/1/38 38/1/38
f 38/1/39 31/1/39 34/1/39
f 40/1/40 39/1/40 32/1/40
f 41/1/41 38/1/41 33/1/41
f 35/1/42 36/1/42 38/1/42 34/1/42
f 37/1/43 12/1/43 39/1/43 36/1/43
f 4/1/44 16/1/44 39/1/44
f 4/1/45 39/1/45 12/1/45
f 40/1/46 30/1/46 39/1/46
f 36/1/47 39/1/47 30/1/47
f 40/1/48 38/1/48 30/1/48
f 30/1/49 38/1/49 36/1/49
f 38/1/50 40/1/50 32/1/50
f 6/1/51 39/1/51 16/1/51
f 21/1/52 48/1/52 43/1/52 1/7/52
f 1/7/53 43/8/53 47/1/53 33/1/53
f 45/3/54 46/4/54 44/5/54
f 41/1/55 47/1/55 31/1/55
f 47/1/56 34/1/56 31/1/56
f 49/1/57 43/1/57 48/1/57
f 41/1/58 33/1/58 47/1/58
f 44/1/59 34/1/59 47/1/59 45/1/59
f 46/1/60 45/1/60 48/1/60 25/1/60
f 19/1/61 48/1/61 29/1/61
f 19/1/62 25/1/62 48/1/62
f 49/1/63 48/1/63 42/1/63
f 45/1/64 42/1/64 48/1/64
f 49/1/65 42/1/65 47/1/65
f 42/1/66 45/1/66 47/1/66
f 47/1/67 43/1/67 49/1/67
f 21/1/68 29/1/68 48/1/68
f 8/1/69 9/1/69 22/1/69
f 24/1/70 46/1/70 25/1/70
f 34/1/71 44/1/71 35/1/71
f 11/1/72 12/1/72 37/1/72
f 9/1/73 11/1/73 37/4/73 35/1/73 44/5/73 46/1/73 24/4/73 22/1/73
