# Blender 4.3.0
# www.blender.org
mtllib NitroDetonator.mtl
o deactivated
v -0.914396 0.928354 -0.782511
v -0.787591 -0.832860 -0.731915
v 0.878176 0.943881 -0.850030
v 0.740906 -0.832860 -0.716626
v -0.866168 0.896550 0.855731
v -0.706054 -0.832860 0.730333
v 0.839594 0.912077 0.865377
v 0.715425 -0.832860 0.745621
v -0.850766 -0.838246 -0.791883
v 0.801805 -0.848904 -0.775354
v -0.762609 -0.868594 0.789061
v 0.774256 -0.848052 0.805590
v -0.850766 -1.000000 -0.791883
v 0.801805 -1.000000 -0.775354
v -0.762609 -1.000000 0.789061
v 0.774256 -1.000000 0.805590
v -0.284750 0.854822 0.017232
v -0.306823 1.060176 0.017232
v -0.148974 0.854822 -0.217940
v -0.160010 1.070305 -0.236853
v 0.122579 0.854822 -0.217940
v 0.133616 1.070305 -0.236853
v 0.258356 0.854822 0.017232
v 0.280428 1.060176 0.017232
v 0.122579 0.854822 0.252404
v 0.133616 1.050047 0.271318
v -0.148974 0.854822 0.252404
v -0.160010 1.050047 0.271318
v 0.015825 1.394896 -0.037557
v -0.037414 1.400756 0.055212
v -0.150389 0.974474 0.017232
v -0.056285 1.805604 0.070915
v -0.098407 0.961565 -0.075538
v 0.048410 1.828251 0.071907
v 0.005556 0.935748 -0.075538
v 0.103445 1.831198 -0.019948
v 0.057538 0.922839 0.017232
v 0.053785 1.811496 -0.112796
v 0.005556 0.935748 0.110002
v -0.105945 1.785903 -0.021933
v -0.098407 0.961565 0.110002
v -0.050910 1.788849 -0.113788
v 0.122303 1.383175 -0.037557
v 0.175542 1.377315 0.055212
v 0.122303 1.383175 0.147982
v 0.015825 1.394896 0.147982
v -0.978813 1.652591 0.982340
v -0.985047 1.873182 0.982340
v -0.978813 1.627261 -0.982340
v -0.985047 1.858109 -0.982340
v 0.985047 1.690344 0.982340
v 0.978813 1.878825 0.982340
v 0.985047 1.658689 -0.982340
v 0.978813 1.866858 -0.982340
v 0.003117 1.680952 -0.982340
v -0.003117 1.896785 -0.982340
v 0.003117 1.680952 0.982340
v -0.003117 1.896785 0.982340
vn -0.0086 0.9998 0.0190
vn 0.9971 -0.0739 0.0194
vn -0.0076 -0.0705 0.9975
vn -0.0155 -0.0519 -0.9985
vn -0.9957 -0.0827 0.0408
vn 0.2524 0.9676 0.0041
vn -0.3249 0.9453 0.0275
vn 0.0051 0.9841 -0.1778
vn -0.0106 0.9189 0.3944
vn 0.9998 -0.0000 0.0174
vn -0.0000 -1.0000 -0.0000
vn -0.0108 -0.0000 0.9999
vn 0.0100 -0.0000 -1.0000
vn -0.9984 -0.0000 0.0557
vn -0.8616 -0.0902 -0.4995
vn -0.0000 -0.0874 -0.9962
vn 0.8616 -0.0902 -0.4995
vn 0.8629 -0.0948 0.4964
vn -0.0000 0.9992 0.0398
vn -0.0000 -0.0964 0.9953
vn -0.8629 -0.0948 0.4964
vn 0.0146 0.0821 -0.9965
vn 0.8480 -0.1787 -0.4990
vn 0.8291 -0.2576 0.4962
vn -0.0146 -0.0821 0.9965
vn -0.8477 0.1800 0.4990
vn -0.8277 0.2626 -0.4960
vn -0.8712 -0.0595 0.4874
vn 0.8431 0.2195 0.4910
vn -0.8387 -0.2417 -0.4880
vn 0.0139 -0.1789 -0.9838
vn -0.0136 0.1739 0.9847
vn 0.8715 0.0558 -0.4873
vn -0.9996 -0.0276 0.0003
vn -0.0000 -0.0000 -1.0000
vn 0.9995 0.0314 -0.0003
vn -0.0000 -0.0000 1.0000
vn -0.0066 -0.9999 0.0081
vn -0.0317 0.9995 -0.0038
vn 0.0244 0.9997 -0.0030
vn 0.0417 -0.9991 0.0064
vt 0.945976 0.641447
vt 0.733835 0.641447
vt 0.733835 0.429305
vt 0.945976 0.429305
vt 0.784383 0.717331
vt 0.764612 0.992168
vt 0.992914 0.992168
vt 0.973143 0.717331
vt 0.112250 0.717331
vt 0.092707 0.992168
vt 0.321326 0.992168
vt 0.301782 0.717331
vt 0.560431 0.717331
vt 0.542969 0.992168
vt 0.747149 0.717331
vt 0.335614 0.717331
vt 0.528681 0.717331
vt 0.955132 0.650097
vt 0.955132 0.418067
vt 0.984136 0.389063
vt 0.984136 0.679101
vt 0.723101 0.418067
vt 0.723101 0.650097
vt 0.694097 0.679101
vt 0.694097 0.389063
vt 0.416522 0.380358
vt 0.641739 0.380358
vt 0.641739 0.421473
vt 0.416522 0.421473
vt 0.121722 0.648110
vt 0.121722 0.420829
vt 0.348228 0.420829
vt 0.348228 0.648110
vt 0.682854 0.421473
vt 0.682854 0.646691
vt 0.641739 0.646691
vt 0.641739 0.421473
vt 0.375406 0.646691
vt 0.375406 0.421473
vt 0.416521 0.421473
vt 0.416521 0.646691
vt 0.641739 0.687806
vt 0.416522 0.687806
vt 0.416522 0.646691
vt 0.641739 0.646691
vt 0.003673 0.258913
vt 0.089918 0.258913
vt 0.089918 0.360534
vt 0.003673 0.360534
vt 0.089918 0.462156
vt 0.003673 0.462156
vt 0.089918 0.563777
vt 0.003673 0.563777
vt 0.089918 0.665398
vt 0.003673 0.665398
vt 0.111689 0.216522
vt 0.062615 0.244855
vt 0.013540 0.216522
vt 0.013540 0.159856
vt 0.062615 0.131523
vt 0.111689 0.159856
vt 0.089918 0.767020
vt 0.003673 0.767020
vt 0.089918 0.868641
vt 0.003673 0.868641
vt 0.792227 0.129577
vt 0.792227 0.229176
vt 0.754799 0.229176
vt 0.754799 0.129577
vt 0.979747 0.129577
vt 0.979747 0.229176
vt 0.942312 0.229176
vt 0.942312 0.129577
vt 0.904668 0.229176
vt 0.904668 0.129577
vt 0.867229 0.229176
vt 0.867229 0.129577
vt 0.829855 0.229176
vt 0.829855 0.129577
vt 0.867229 0.328775
vt 0.829855 0.328775
vt 0.942312 0.328775
vt 0.904668 0.328775
vt 0.792227 0.328775
vt 0.754799 0.328775
vt 0.979747 0.328775
vt 0.094666 0.091389
vt 0.094666 0.014686
vt 0.318817 0.014686
vt 0.318817 0.091389
vt 0.430893 0.091389
vt 0.430893 0.014686
vt 0.542969 0.014686
vt 0.542969 0.091389
vt 0.767120 0.014686
vt 0.767120 0.091389
vt 0.879196 0.091389
vt 0.879196 0.014686
vt 0.991272 0.014686
vt 0.991272 0.091389
vt 0.361111 0.121151
vt 0.472467 0.121151
vt 0.472467 0.348783
vt 0.361111 0.348783
vt 0.609032 0.120281
vt 0.723023 0.120281
vt 0.723023 0.348262
vt 0.609032 0.348262
vt 0.495041 0.120281
vt 0.495041 0.348262
vt 0.247294 0.121151
vt 0.247294 0.348783
s 0
usemtl mat_nitrodetonator
f 1/1/1 5/2/1 7/3/1 3/4/1
f 4/5/2 3/6/2 7/7/2 8/8/2
f 8/9/3 7/10/3 5/11/3 6/12/3
f 2/13/4 1/14/4 3/6/4 4/15/4
f 6/16/5 5/11/5 1/14/5 2/17/5
f 4/18/6 8/19/6 12/20/6 10/21/6
f 6/22/7 2/23/7 9/24/7 11/25/7
f 2/23/8 4/18/8 10/21/8 9/24/8
f 8/19/9 6/22/9 11/25/9 12/20/9
f 10/26/10 12/27/10 16/28/10 14/29/10
f 15/30/11 13/31/11 14/32/11 16/33/11
f 12/34/12 11/35/12 15/36/12 16/37/12
f 9/38/13 10/39/13 14/40/13 13/41/13
f 11/42/14 9/43/14 13/44/14 15/45/14
f 17/46/15 18/47/15 20/48/15 19/49/15
f 19/49/16 20/48/16 22/50/16 21/51/16
f 21/51/17 22/50/17 24/52/17 23/53/17
f 23/53/18 24/52/18 26/54/18 25/55/18
f 20/56/19 18/57/19 28/58/19 26/59/19 24/60/19 22/61/19
f 25/55/20 26/54/20 28/62/20 27/63/20
f 27/63/21 28/62/21 18/64/21 17/65/21
f 33/66/22 29/67/22 43/68/22 35/69/22
f 35/70/23 43/71/23 44/72/23 37/73/23
f 37/73/24 44/72/24 45/74/24 39/75/24
f 39/75/25 45/74/25 46/76/25 41/77/25
f 41/77/26 46/76/26 30/78/26 31/79/26
f 31/79/27 30/78/27 29/67/27 33/66/27
f 30/78/28 46/76/28 32/80/28 40/81/28
f 45/74/29 44/72/29 36/82/29 34/83/29
f 29/67/30 30/78/30 40/81/30 42/84/30
f 43/68/31 29/67/31 42/84/31 38/85/31
f 46/76/32 45/74/32 34/83/32 32/80/32
f 44/72/33 43/71/33 38/86/33 36/82/33
f 47/87/34 48/88/34 50/89/34 49/90/34
f 55/91/35 56/92/35 54/93/35 53/94/35
f 53/94/36 54/93/36 52/95/36 51/96/36
f 57/97/37 58/98/37 48/99/37 47/100/37
f 55/101/38 53/102/38 51/103/38 57/104/38
f 56/105/39 50/106/39 48/107/39 58/108/39
f 54/109/40 56/105/40 58/108/40 52/110/40
f 49/111/41 55/101/41 57/104/41 47/112/41
f 51/96/37 52/95/37 58/98/37 57/97/37
f 49/90/35 50/89/35 56/92/35 55/91/35
