# Blender 4.5.3 LTS
# www.blender.org
mtllib Outhouse.mtl
o House
v 1.095105 2.625665 -0.830741
v 1.011523 -1.000000 -0.794793
v 1.112751 2.487881 0.583571
v 1.030055 -0.770603 0.568180
v -1.256329 2.592617 -0.568573
v -1.161736 -1.000000 -0.552490
v -0.961906 2.458723 0.814895
v -0.879841 -0.770603 0.781106
v -1.011523 -1.000000 0.794793
v -1.100251 2.942642 0.831315
v 1.251183 2.975690 0.569146
v 1.161736 -1.000000 0.552490
v -1.008540 -0.760520 -0.360354
v -1.101034 2.467630 -0.444839
v 0.974779 2.495373 -0.665736
v 0.902503 -0.761805 -0.562729
v -0.972212 1.691366 0.745281
v -0.972212 1.807947 0.745281
v -0.973373 1.691366 0.628705
v -0.973373 1.807947 0.628705
v -0.855636 1.691366 0.744120
v -0.855636 1.807947 0.744120
v -0.856797 1.691366 0.627544
v -0.856797 1.807947 0.627544
v -0.926117 -0.285123 0.744595
v -0.926117 -0.168542 0.744595
v -0.927278 -0.285123 0.628019
v -0.927278 -0.168542 0.628019
v -0.809541 -0.285123 0.743434
v -0.809541 -0.168542 0.743434
v -0.810702 -0.285123 0.626858
v -0.810702 -0.168542 0.626858
v 1.211545 2.535156 -1.076729
v -1.339854 2.497680 -0.770446
v -1.169958 2.909341 1.181745
v 1.381441 2.946816 0.875462
v 1.375714 3.094509 0.839245
v -1.175686 3.057034 1.145529
v 1.205817 2.682849 -1.112945
v -1.345582 2.645373 -0.806662
vn 0.0128 -0.9999 -0.0080
vn -0.9932 -0.0245 0.1139
vn -0.0000 -1.0000 -0.0000
vn 0.9939 -0.0229 -0.1079
vn -0.1108 -0.0073 -0.9938
vn 0.1040 -0.0073 0.9945
vn 0.1176 -0.0072 0.9930
vn 0.1108 -0.0020 0.9938
vn 0.1108 -0.0043 0.9938
vn 0.1053 0.0291 0.9940
vn 0.9935 0.0260 -0.1106
vn 0.0012 1.0000 0.0082
vn -0.9935 0.0251 0.1110
vn -1.0000 -0.0000 0.0100
vn -0.0100 -0.0000 -1.0000
vn 1.0000 -0.0000 -0.0100
vn 0.0100 -0.0000 1.0000
vn -0.0000 1.0000 -0.0000
vn 0.0387 -0.9784 0.2030
vn -0.0387 0.9784 -0.2029
vn 0.9958 0.0165 -0.0901
vn -0.9958 -0.0165 0.0901
vn 0.1122 0.2408 0.9641
vn -0.1122 -0.2408 -0.9641
vt 0.105076 0.523058
vt 0.105076 0.649976
vt 0.066551 0.649888
vt 0.066870 0.522971
vt 0.799423 0.536020
vt 0.801046 0.984647
vt 0.714694 0.939726
vt 0.716317 0.536020
vt 0.150528 0.805711
vt 0.284584 0.805711
vt 0.284584 0.971924
vt 0.150528 0.971924
vt 0.744129 0.077002
vt 0.745751 0.492740
vt 0.659400 0.533755
vt 0.661022 0.077002
vt 0.672416 0.554729
vt 0.675352 0.968918
vt 0.530292 0.968918
vt 0.538371 0.551209
vt 0.478418 0.110163
vt 0.475404 0.480491
vt 0.466965 0.537179
vt 0.470535 0.080515
vt 0.603390 0.480491
vt 0.596255 0.109665
vt 0.604622 0.079949
vt 0.612025 0.537178
vt 0.263373 0.089812
vt 0.270843 0.475999
vt 0.142857 0.475999
vt 0.145572 0.092905
vt 0.104907 0.846370
vt 0.069989 0.846164
vt 0.104929 0.208072
vt 0.105038 0.324899
vt 0.070443 0.324939
vt 0.070011 0.208115
vt 0.310729 0.895451
vt 0.317515 0.895451
vt 0.317515 0.909023
vt 0.310729 0.909023
vt 0.317515 0.922596
vt 0.310729 0.922596
vt 0.317515 0.936168
vt 0.310729 0.936168
vt 0.317515 0.949741
vt 0.310729 0.949741
vt 0.303943 0.922596
vt 0.303943 0.936168
vt 0.324301 0.922596
vt 0.324301 0.936168
vt 0.310729 0.829010
vt 0.317515 0.829010
vt 0.317515 0.842582
vt 0.310729 0.842582
vt 0.317515 0.856155
vt 0.310729 0.856155
vt 0.317515 0.869727
vt 0.310729 0.869727
vt 0.317515 0.883299
vt 0.310729 0.883299
vt 0.303943 0.856155
vt 0.303943 0.869727
vt 0.324301 0.856155
vt 0.324301 0.869727
vt 0.314168 0.752824
vt 0.314168 0.532331
vt 0.128967 0.532331
vt 0.128967 0.752824
vt 0.508856 0.770964
vt 0.323655 0.770964
vt 0.323655 0.550471
vt 0.508856 0.550471
vt 0.187159 0.031200
vt 0.290590 0.039005
vt 0.290574 0.054737
vt 0.187143 0.046933
vt 0.423437 0.038172
vt 0.526883 0.031200
vt 0.526867 0.046933
vt 0.423421 0.053904
vt 0.659727 0.033104
vt 0.659711 0.048836
s 0
usemtl mat_outhouse
f 3/1/1 7/2/1 14/3/1 15/4/1
f 9/5/2 10/6/2 5/7/2 6/8/2
f 6/9/3 2/10/3 12/11/3 9/12/3
f 2/13/4 1/14/4 11/15/4 12/16/4
f 6/17/5 5/18/5 1/19/5 2/20/5
f 8/21/6 7/22/6 10/23/6 9/24/6
f 3/25/7 4/26/7 12/27/7 11/28/7
f 7/22/8 3/25/8 11/28/8 10/23/8
f 4/26/9 8/21/9 9/24/9 12/27/9
f 16/29/10 15/30/10 14/31/10 13/32/10
f 7/2/11 8/33/11 13/34/11 14/3/11
f 8/35/12 4/36/12 16/37/12 13/38/12
f 4/36/13 3/1/13 15/4/13 16/37/13
f 17/39/14 18/40/14 20/41/14 19/42/14
f 19/42/15 20/41/15 24/43/15 23/44/15
f 23/44/16 24/43/16 22/45/16 21/46/16
f 21/46/17 22/45/17 18/47/17 17/48/17
f 19/49/3 23/44/3 21/46/3 17/50/3
f 24/43/18 20/51/18 18/52/18 22/45/18
f 25/53/14 26/54/14 28/55/14 27/56/14
f 27/56/15 28/55/15 32/57/15 31/58/15
f 31/58/16 32/57/16 30/59/16 29/60/16
f 29/60/17 30/59/17 26/61/17 25/62/17
f 27/63/3 31/58/3 29/60/3 25/64/3
f 32/57/18 28/65/18 26/66/18 30/59/18
f 33/67/19 36/68/19 35/69/19 34/70/19
f 39/71/20 40/72/20 38/73/20 37/74/20
f 36/75/21 33/76/21 39/77/21 37/78/21
f 34/79/22 35/80/22 38/81/22 40/82/22
f 35/80/23 36/83/23 37/84/23 38/81/23
f 33/76/24 34/79/24 40/82/24 39/77/24
