# Blender 4.4.3
# www.blender.org
mtllib RankStage.mtl
o Cube
v 15.811883 14.866497 -7.132447
v 15.811883 0.000000 -7.132447
v 15.811883 0.000000 7.682384
v -15.471209 14.866497 -7.132447
v -15.471209 0.000000 -7.132447
v -15.471209 0.000000 7.682384
v 15.811883 14.866497 -4.708340
v 15.811883 2.298541 -4.708340
v -15.471209 14.866497 -4.708340
v -15.471209 2.298541 -4.708340
v -12.705205 14.637612 -1.496789
v -12.800046 15.432273 -1.434199
v -12.760324 14.716458 -3.483679
v -12.800046 15.534574 -3.478514
v -10.733086 14.710185 -1.549244
v -10.779268 15.526445 -1.429486
v -10.734361 14.759839 -3.460658
v -10.779268 15.628746 -3.473801
v -11.694647 13.820844 -3.614833
v -11.744226 14.890246 -3.218744
v -11.121435 13.839037 -3.443226
v -11.353637 14.902642 -3.101809
v -10.730214 13.834412 -2.985563
v -11.087055 14.899490 -2.789953
v -10.645194 13.808438 -2.387147
v -11.029120 14.881792 -2.382188
v -10.893367 13.769362 -1.837973
v -11.198227 14.855165 -2.007976
v -11.395942 13.729590 -1.512399
v -11.540687 14.828064 -1.786127
v -11.993352 13.701749 -1.513792
v -11.947766 14.809093 -1.787077
v -12.495924 13.694678 -1.841710
v -12.290225 14.804276 -2.010523
v -12.744098 13.710624 -2.392042
v -12.459331 14.815141 -2.385524
v -12.659079 13.744522 -2.990061
v -12.401400 14.838240 -2.793019
v -12.267857 13.785610 -3.445900
v -12.134817 14.866238 -3.103631
v -13.187459 13.598640 -1.035588
v -10.228840 13.778913 -0.958526
v -13.102437 13.730057 -4.066584
v -10.199651 13.889136 -4.051226
v 0.170337 2.298541 -6.232128
v 0.170337 14.866497 -6.232128
v -15.471209 2.328871 -7.132447
v -15.471209 2.328871 1.758467
v 15.811883 2.328871 -7.132447
v 15.811883 2.328871 1.758467
v 15.811883 0.000000 5.197125
v -15.471209 0.000000 5.197125
v -15.471209 4.728870 5.197125
v 15.811883 4.728870 5.197125
v 15.811883 0.000000 1.758467
v -15.471209 0.000000 1.758467
v -15.471209 2.328871 1.758467
v 15.811883 2.328871 1.758467
v -5.775973 14.943720 -1.503704
v -5.803224 15.746117 -1.504682
v -5.863112 14.868006 -3.489521
v -5.834938 15.684357 -3.550369
v -3.816748 14.841606 -1.588102
v -3.792877 15.665829 -1.534510
v -3.851455 14.738291 -3.497041
v -3.824591 15.604070 -3.580197
v -4.883479 13.876180 -3.561572
v -4.836683 14.974187 -3.253127
v -4.310586 13.858550 -3.399649
v -4.446309 14.962173 -3.142790
v -3.914298 13.856804 -2.948366
v -4.176274 14.960983 -2.835282
v -3.820436 13.871499 -2.351002
v -4.112317 14.970997 -2.428234
v -4.058800 13.897967 -1.797217
v -4.274738 14.989033 -2.050880
v -4.553711 13.927806 -1.462833
v -4.611976 15.009364 -1.823028
v -5.148037 13.951542 -1.454015
v -5.016954 15.025538 -1.817019
v -5.653084 13.961637 -1.773562
v -5.361099 15.032418 -2.034761
v -5.908506 13.954890 -2.320021
v -5.535144 15.027821 -2.407123
v -5.833205 13.933440 -2.919894
v -5.483834 15.013204 -2.815882
v -5.451089 13.904098 -3.382727
v -5.223457 14.993211 -3.131259
v -6.330447 13.990284 -0.953176
v -3.382228 13.920445 -0.930371
v -6.294886 13.871267 -3.985688
v -3.404953 13.780263 -4.021912
v 0.418635 15.711578 -2.420688
v 0.511290 16.500992 -2.533900
v 0.299630 15.373433 -4.377295
v 0.447981 16.159986 -4.551173
v 2.321754 15.310971 -2.470142
v 2.468349 16.121822 -2.531848
v 2.250872 14.948794 -4.346244
v 2.405040 15.780818 -4.549121
v 1.110929 14.247972 -4.300305
v 1.323580 15.359003 -4.147635
v 1.671339 14.168820 -4.131705
v 1.705448 15.305068 -4.032749
v 2.064370 14.171601 -3.680598
v 1.973263 15.306963 -3.725361
v 2.165235 14.255433 -3.090207
v 2.041993 15.364087 -3.323064
v 1.941911 14.393702 -2.547978
v 1.889820 15.458303 -2.953585
v 1.465302 14.542504 -2.226064
v 1.565054 15.559699 -2.734230
v 0.886730 14.654600 -2.226671
v 1.170811 15.636082 -2.734643
v 0.389886 14.694395 -2.549605
v 0.832256 15.663199 -2.954694
v 0.132513 14.649261 -3.092339
v 0.656880 15.632444 -3.324517
v 0.196326 14.533523 -3.682557
v 0.700362 15.553579 -3.726696
v 0.561066 14.383927 -4.132869
v 0.948900 15.451644 -4.033543
v -0.260152 14.936691 -1.748152
v 2.617795 14.436810 -1.685933
v -0.277198 14.392131 -4.733876
v 2.539840 13.871892 -4.727742
v 9.463643 15.119039 -1.802855
v 9.445969 15.920187 -1.753314
v 9.959589 15.178822 -3.727314
v 10.013009 15.996105 -3.717285
v 11.376413 14.960073 -1.306180
v 11.392297 15.777708 -1.187773
v 11.900146 14.985521 -3.143728
v 11.959338 15.853628 -3.151744
v 10.914974 14.163125 -3.576138
v 10.881270 15.236060 -3.187962
v 11.419839 14.116388 -3.252139
v 11.225289 15.204212 -2.967186
v 11.669957 14.071841 -2.703850
v 11.395720 15.173858 -2.593577
v 11.585915 14.043631 -2.105350
v 11.338453 15.154634 -2.185754
v 11.194397 14.040712 -1.646657
v 11.071671 15.152646 -1.873196
v 10.619706 14.064012 -1.473404
v 10.680072 15.168523 -1.755141
v 10.044306 14.106133 -1.640597
v 10.287991 15.197225 -1.869067
v 9.650880 14.153701 -2.095152
v 10.019905 15.229638 -2.178806
v 9.564337 14.191617 -2.692754
v 9.960935 15.255474 -2.586016
v 9.812155 14.207838 -3.243667
v 10.129799 15.266527 -2.961413
v 10.315654 14.197216 -3.572980
v 10.472889 15.259291 -3.185809
v 8.758122 14.149229 -1.513157
v 11.593492 13.983617 -0.616844
v 9.678034 14.231737 -4.401903
v 12.474250 14.050822 -3.580794
v 5.384184 0.000000 -7.132447
v -5.043512 0.000000 -7.132447
v -5.043511 0.000000 7.682384
v 5.384186 0.000000 7.682384
v -5.043511 14.866497 -7.132447
v 5.384186 14.866497 -7.132447
vn -0.0000 -1.0000 -0.0000
vn -0.0000 -0.0000 -1.0000
vn 0.0970 -0.0000 -0.9953
vn -0.9965 -0.0836 0.0099
vn 0.0070 -0.0044 -1.0000
vn 0.9985 0.0539 0.0017
vn 0.0165 -0.1110 0.9937
vn 0.0287 -0.9990 -0.0333
vn 0.0246 -0.4871 -0.8730
vn -0.0138 0.3467 -0.9379
vn 0.5058 0.3618 -0.7831
vn 0.4849 -0.4734 -0.7353
vn 0.8557 0.3557 -0.3757
vn 0.7947 -0.4785 -0.3733
vn 0.9310 0.3323 0.1512
vn 0.8613 -0.4992 0.0945
vn 0.7105 0.2992 0.6369
vn 0.6662 -0.5288 0.5258
vn 0.2575 0.2655 0.9291
vn 0.2650 -0.5592 0.7856
vn -0.2850 0.2407 0.9278
vn -0.2158 -0.5814 0.7845
vn -0.7377 0.2332 0.6335
vn -0.6170 -0.5881 0.5230
vn -0.9580 0.2461 0.1469
vn -0.8121 -0.5764 0.0907
vn -0.8829 0.2764 -0.3796
vn -0.7455 -0.5496 -0.3770
vn -0.5332 0.3144 -0.7854
vn -0.4357 -0.5159 -0.7375
vn -0.0584 0.9976 0.0383
vn -0.0970 -0.0000 -0.9953
vn -0.9996 0.0017 0.0294
vn -0.0137 -0.0848 -0.9963
vn 0.9994 -0.0303 -0.0155
vn 0.0273 -0.0323 0.9991
vn -0.0571 -0.9972 0.0476
vn -0.0343 -0.5553 -0.8309
vn -0.0037 0.2706 -0.9627
vn 0.5203 0.2538 -0.8154
vn 0.4297 -0.5704 -0.7000
vn 0.8758 0.2501 -0.4129
vn 0.7443 -0.5735 -0.3422
vn 0.9586 0.2623 0.1111
vn 0.8175 -0.5626 0.1232
vn 0.7472 0.2872 0.5994
vn 0.6305 -0.5406 0.5570
vn 0.2988 0.3160 0.9005
vn 0.2336 -0.5151 0.8247
vn -0.2464 0.3372 0.9086
vn -0.2492 -0.4960 0.8318
vn -0.7048 0.3436 0.6206
vn -0.6547 -0.4899 0.5756
vn -0.9318 0.3355 0.1383
vn -0.8553 -0.4968 0.1472
vn -0.8654 0.3174 -0.3879
vn -0.7966 -0.5130 -0.3199
vn -0.5227 0.2940 -0.8002
vn -0.4937 -0.5341 -0.6863
vn 0.0274 0.9987 -0.0422
vn -0.9878 0.1545 0.0189
vn -0.0370 -0.2200 -0.9748
vn 0.9836 -0.1803 -0.0013
vn 0.0332 0.1037 0.9941
vn -0.2049 -0.9610 0.1857
vn -0.1256 -0.6540 -0.7460
vn 0.0261 0.1312 -0.9910
vn 0.5465 0.0564 -0.8356
vn 0.3345 -0.7203 -0.6077
vn 0.9001 0.0552 -0.4321
vn 0.6469 -0.7208 -0.2490
vn 0.9885 0.1271 0.0822
vn 0.7249 -0.6568 0.2079
vn 0.7907 0.2513 0.5582
vn 0.5505 -0.5468 0.6309
vn 0.3544 0.3899 0.8499
vn 0.1649 -0.4240 0.8905
vn -0.1859 0.4935 0.8496
vn -0.3127 -0.3319 0.8900
vn -0.6425 0.5263 0.5570
vn -0.7158 -0.3026 0.6294
vn -0.8715 0.4838 0.0803
vn -0.9176 -0.3402 0.2059
vn -0.8150 0.3840 -0.4339
vn -0.8680 -0.4288 -0.2505
vn -0.4853 0.2541 -0.8366
vn -0.5774 -0.5445 -0.6084
vn 0.1755 0.9677 -0.1809
vn -0.9644 0.0310 -0.2626
vn 0.2821 -0.0177 -0.9592
vn 0.9599 -0.0607 0.2738
vn -0.2713 -0.0996 0.9573
vn -0.0787 -0.9959 -0.0439
vn 0.2078 -0.4980 -0.8419
vn 0.2852 0.3340 -0.8984
vn 0.7380 0.2914 -0.6086
vn 0.6093 -0.5359 -0.5845
vn 0.9601 0.2512 -0.1232
vn 0.8062 -0.5715 -0.1532
vn 0.8857 0.2266 0.4053
vn 0.7402 -0.5934 0.3161
vn 0.5364 0.2249 0.8134
vn 0.4306 -0.5949 0.6787
vn 0.0189 0.2461 0.9690
vn -0.0283 -0.5760 0.8170
vn -0.4993 0.2830 0.8189
vn -0.4878 -0.5430 0.6835
vn -0.8505 0.3239 0.4144
vn -0.7990 -0.5064 0.3241
vn -0.9272 0.3570 -0.1134
vn -0.8670 -0.4770 -0.1445
vn -0.7070 0.3724 -0.6012
vn -0.6719 -0.4635 -0.5777
vn -0.2553 0.3643 -0.8956
vn -0.2715 -0.4709 -0.8393
vn 0.0490 0.9980 0.0406
vt 0.781115 0.050236
vt 0.864449 0.050236
vt 0.864449 0.300236
vt 0.781115 0.300236
vt 0.354605 0.482671
vt 0.354605 0.997276
vt 0.492603 0.997276
vt 0.492603 0.482671
vt 0.703564 0.511283
vt 0.703564 0.984796
vt 0.996029 0.984796
vt 0.996029 0.511283
vt 0.745833 0.140401
vt 0.768966 0.140401
vt 0.768966 0.163534
vt 0.745833 0.163534
vt 0.768966 0.186667
vt 0.745833 0.186667
vt 0.768966 0.209800
vt 0.745833 0.209800
vt 0.768966 0.232933
vt 0.745833 0.232933
vt 0.722700 0.186667
vt 0.722700 0.209800
vt 0.819310 0.175654
vt 0.819310 0.219964
vt 0.811254 0.219964
vt 0.811254 0.175654
vt 0.803197 0.219964
vt 0.803197 0.175654
vt 0.795141 0.219964
vt 0.795141 0.175654
vt 0.787085 0.219964
vt 0.787085 0.175654
vt 0.779028 0.219964
vt 0.779028 0.175654
vt 0.770972 0.219964
vt 0.770972 0.175654
vt 0.762915 0.219964
vt 0.762915 0.175654
vt 0.754859 0.219964
vt 0.754859 0.175654
vt 0.746803 0.219964
vt 0.746803 0.175654
vt 0.738746 0.219964
vt 0.738746 0.175654
vt 0.730690 0.219964
vt 0.730690 0.175654
vt 0.797155 0.174767
vt 0.808654 0.171391
vt 0.816502 0.162334
vt 0.818208 0.150472
vt 0.813229 0.139570
vt 0.803147 0.133091
vt 0.791163 0.133091
vt 0.781081 0.139570
vt 0.776103 0.150472
vt 0.777808 0.162334
vt 0.785656 0.171391
vt 0.530968 0.339907
vt 0.501013 0.339907
vt 0.501445 0.290469
vt 0.530810 0.291419
vt 0.506648 0.511283
vt 0.506648 0.984796
vt 0.786613 0.984796
vt 0.786613 0.511283
vt 0.499727 0.007435
vt 0.005228 0.007435
vt 0.005228 0.129867
vt 0.499727 0.129867
vt 0.004943 0.491956
vt 0.495057 0.491956
vt 0.495057 0.186052
vt 0.004943 0.186052
vt 0.995057 0.354228
vt 0.504943 0.354228
vt 0.504943 0.438679
vt 0.995057 0.438679
vt 0.572802 0.339907
vt 0.542846 0.339907
vt 0.543278 0.290469
vt 0.572643 0.291419
vt 0.006053 0.482671
vt 0.006053 0.997276
vt 0.144051 0.997276
vt 0.144051 0.482671
vt 0.134743 0.482671
vt 0.134743 0.997276
vt 0.363914 0.997276
vt 0.363914 0.482671
vt 0.614449 0.050236
vt 0.697782 0.050236
vt 0.697782 0.300236
vt 0.614449 0.300236
s 0
usemtl mat_stage
f 161/1/1 2/2/1 3/3/1 164/4/1
f 161/5/2 166/6/2 1/7/2 2/8/2
f 45/9/3 46/10/3 7/11/3 8/12/3
f 11/13/4 12/14/4 14/15/4 13/16/4
f 13/16/5 14/15/5 18/17/5 17/18/5
f 17/18/6 18/17/6 16/19/6 15/20/6
f 15/20/7 16/19/7 12/21/7 11/22/7
f 13/23/8 17/18/8 15/20/8 11/24/8
s 1
f 19/25/9 20/26/10 22/27/11 21/28/12
f 21/28/12 22/27/11 24/29/13 23/30/14
f 23/30/14 24/29/13 26/31/15 25/32/16
f 25/32/16 26/31/15 28/33/17 27/34/18
f 27/34/18 28/33/17 30/35/19 29/36/20
f 29/36/20 30/35/19 32/37/21 31/38/22
f 31/38/22 32/37/21 34/39/23 33/40/24
f 33/40/24 34/39/23 36/41/25 35/42/26
f 35/42/26 36/41/25 38/43/27 37/44/28
f 37/44/28 38/43/27 40/45/29 39/46/30
f 39/46/30 40/45/29 20/47/10 19/48/9
f 19/49/9 21/50/12 23/51/14 25/52/16 27/53/18 29/54/20 31/55/22 33/56/24 35/57/26 37/58/28 39/59/30
s 0
f 41/60/31 42/61/31 44/62/31 43/63/31
f 10/64/32 9/65/32 46/66/32 45/67/32
f 51/68/2 52/69/2 53/70/2 54/71/2
f 47/72/1 49/73/1 50/74/1 48/75/1
f 55/76/2 56/77/2 57/78/2 58/79/2
f 59/13/33 60/14/33 62/15/33 61/16/33
f 61/16/34 62/15/34 66/17/34 65/18/34
f 65/18/35 66/17/35 64/19/35 63/20/35
f 63/20/36 64/19/36 60/21/36 59/22/36
f 61/23/37 65/18/37 63/20/37 59/24/37
s 1
f 67/25/38 68/26/39 70/27/40 69/28/41
f 69/28/41 70/27/40 72/29/42 71/30/43
f 71/30/43 72/29/42 74/31/44 73/32/45
f 73/32/45 74/31/44 76/33/46 75/34/47
f 75/34/47 76/33/46 78/35/48 77/36/49
f 77/36/49 78/35/48 80/37/50 79/38/51
f 79/38/51 80/37/50 82/39/52 81/40/53
f 81/40/53 82/39/52 84/41/54 83/42/55
f 83/42/55 84/41/54 86/43/56 85/44/57
f 85/44/57 86/43/56 88/45/58 87/46/59
f 87/46/59 88/45/58 68/47/39 67/48/38
f 67/49/38 69/50/41 71/51/43 73/52/45 75/53/47 77/54/49 79/55/51 81/56/53 83/57/55 85/58/57 87/59/59
s 0
f 89/60/60 90/61/60 92/62/60 91/63/60
f 93/13/61 94/14/61 96/15/61 95/16/61
f 95/16/62 96/15/62 100/17/62 99/18/62
f 99/18/63 100/17/63 98/19/63 97/20/63
f 97/20/64 98/19/64 94/21/64 93/22/64
f 95/23/65 99/18/65 97/20/65 93/24/65
s 1
f 101/25/66 102/26/67 104/27/68 103/28/69
f 103/28/69 104/27/68 106/29/70 105/30/71
f 105/30/71 106/29/70 108/31/72 107/32/73
f 107/32/73 108/31/72 110/33/74 109/34/75
f 109/34/75 110/33/74 112/35/76 111/36/77
f 111/36/77 112/35/76 114/37/78 113/38/79
f 113/38/79 114/37/78 116/39/80 115/40/81
f 115/40/81 116/39/80 118/41/82 117/42/83
f 117/42/83 118/41/82 120/43/84 119/44/85
f 119/44/85 120/43/84 122/45/86 121/46/87
f 121/46/87 122/45/86 102/47/67 101/48/66
f 101/49/66 103/50/69 105/51/71 107/52/73 109/53/75 111/54/77 113/55/79 115/56/81 117/57/83 119/58/85 121/59/87
s 0
f 123/80/88 124/81/88 126/82/88 125/83/88
f 127/13/89 128/14/89 130/15/89 129/16/89
f 129/16/90 130/15/90 134/17/90 133/18/90
f 133/18/91 134/17/91 132/19/91 131/20/91
f 131/20/92 132/19/92 128/21/92 127/22/92
f 129/23/93 133/18/93 131/20/93 127/24/93
s 1
f 135/25/94 136/26/95 138/27/96 137/28/97
f 137/28/97 138/27/96 140/29/98 139/30/99
f 139/30/99 140/29/98 142/31/100 141/32/101
f 141/32/101 142/31/100 144/33/102 143/34/103
f 143/34/103 144/33/102 146/35/104 145/36/105
f 145/36/105 146/35/104 148/37/106 147/38/107
f 147/38/107 148/37/106 150/39/108 149/40/109
f 149/40/109 150/39/108 152/41/110 151/42/111
f 151/42/111 152/41/110 154/43/112 153/44/113
f 153/44/113 154/43/112 156/45/114 155/46/115
f 155/46/115 156/45/114 136/47/95 135/48/94
f 135/49/94 137/50/97 139/51/99 141/52/101 143/53/103 145/54/105 147/55/107 149/56/109 151/57/111 153/58/113 155/59/115
s 0
f 157/60/116 158/61/116 160/62/116 159/63/116
f 5/84/2 4/85/2 165/86/2 162/87/2
f 162/88/2 165/89/2 166/90/2 161/91/2
f 5/92/1 162/93/1 163/94/1 6/95/1
f 162/93/1 161/1/1 164/4/1 163/94/1
